<svg xmlns="http://www.w3.org/2000/svg" xmlns:xlink="http://www.w3.org/1999/xlink" xmlns:lucid="lucid" width="671" height="460.73"><g transform="translate(-9 7.105427357601002e-15)" lucid:page-tab-id="0_0"><path d="M281.56 107.44c-25.12 0-45.5-7.05-45.5-16.4v87.3c0 8.93 20.02 16.3 44.86 16.4h.64c25.12 0 45.5-7.06 45.5-16.4v-87.3c0 9.03-20.38 16.4-45.5 16.4z" stroke="#000" stroke-opacity="0" fill="url(#a)"/><path d="M327.06 91.1c0 9.06-20.38 16.4-45.5 16.4s-45.5-7.08-45.5-16.4c0-9.3 20.38-16.37 45.5-16.37s45.5 7.08 45.5 16.38" stroke="#000" stroke-opacity="0" fill="#e8e8e8"/><path d="M316.4 89.8c0 5.8-15.62 10.47-34.82 10.47-19.26 0-34.96-4.68-34.96-10.4 0-5.74 15.63-10.48 34.96-10.48 19.27 0 34.83 4.67 34.83 10.4" stroke="#000" stroke-opacity="0" fill="#50e6ff"/><path d="M281.6 92.42c-9.9-.24-18.3.98-27.7 4.02 9.4 3 17.8 4.14 27.7 3.8 9.86.25 18.27-1 27.62-4.08-9.4-2.9-17.76-4.03-27.6-3.74z" stroke="#000" stroke-opacity="0" fill="#198ab3"/><path d="M302.86 134.83v2.94c-.3 1.54-.5 2.9-.55 4.43 0 .83 0 2.1.37 3.26.3 1.16 0 1.93 0 2.57-.06 2.24-.6 4.16-1.78 6.02-.07.2-.07.32 0 .5l.67.85c3.37-5.5 5.64-10.58 7.54-16.8 1.98-6.72 2.22-11.53.63-13.58-4.66-5.7-11.84-8-19.02-6.02 2.6 1.22 4.55 2.7 6.45 4.68 3.5 2.94 5.4 6.66 5.7 11.15zm-2.2.5c-1.97-.44-3.8-.25-5.6.65-2.08 1.28-1.4 3.9 0 7.05.75 2.18 1.48 3.97 2.46 6.02l.68 1.16c.3.58.55 1.03.73 1.42l.62.9c.85-1.48 1.22-2.9 1.22-4.56.06-.83.06-1.53 0-2.37 0-1.22 0-2.57-.3-3.47.06-1.73.24-3.14.55-4.87-.25-.77-.13-1.54-.06-2.1zm-2.16 2.96c-.37.3-.73.56-1.22.7-.37.06-.68.06-1.05 0-.36-.4-.55-.84-.5-1.35 0-.52.8-.97 1.73-1.1h1.35s.7 0 .7.58c-.14.4-.32.7-.7.9zm-33.24 6.27v-1.22c.06-.45.06-.77 0-1.22-.25-2.43-.25-4.55 0-7.05.43-2.82 1.1-5.12 2.15-7.75.87-2.63 2.15-4.68 4.12-6.66-3.32-.97-6.2-1.42-9.57-1.42-2.88-.12-5.4.58-7.85 2.12-3.68 3.33-5.28 7.95-4.42 12.88.68 5.64 1.78 10.38 3.5 15.83 2.45 8 5.2 12.94 7.6 13.77 1.1.33 2.2 0 3.38-1.53 1.96-2.37 3.8-4.42 4.84-5.64-3.3-3.33-4.54-7.76-3.43-12.37zm1.84 2.82c0 1.4.12 2.55.43 3.9.43 1.2 1.04 2.17 1.84 3.13.74.77 1.53 1.35 2.5 1.8.93.32 1.73.5 2.77.5 0-1.14 1-2.68 1.6-4.22.67-1.4 1.1-2.6 1.53-4.15.2-2.76.2-5.06 0-7.82 0-.64 0-1.35-.43-2.12-.06-.75-.36-1.4-.86-1.9-.6-.58-1.22-.9-2.02-1.16h-1.4c-1.24.2-2.28.45-3.38 1.03-.86.38-1.54.76-2.27 1.34v8.92zm4.66-9.5c.68-.2 1.35-.2 2.03 0 .48.07.9.2 1.33.45.62 0 .68.77.62.96-.2.4-.5.72-.86.9-.13-.05-.26-.12-.44-.25-1.04-.2-1.78-.96-1.96-1.98zm5.28 21.2c-.37 0-.68.14-.92.4l-1 1.22c-1.2 1.47-1.7 1.98-5.2 2.7-.67.05-1.23.24-1.84.7.55.38 1.04.63 1.72.76 1.72.58 3.37.58 5.1 0 1.1-.5 1.9-1.03 2.75-1.86.74-.58 1.23-1.28 1.47-2.18.06-.77-.18-1.4-.73-1.98-.32-.2-.7-.26-1.06-.13zm32.7 0c-2.7.97-5.3.97-8 0-.35-.1-.66-.1-1.03 0-.48.14-.9.46-1.15.97-.13.77-.13 1.4 0 2.18 2.7.64 5.2.4 7.78-.7 1.36-.58 2.4-1.28 3.38-2.37zm-17-15.1c-1.05-2.9-2.45-7.06 1.22-9.62 2.03-1.1 4.1-1.48 6.32-1.1-.98-3.13-2.33-5.63-4.54-8.06l-.67-.7-.43-.46c-.12-.2-.25-.32-.43-.45-1.46-1.27-2.93-2.17-4.77-2.93-2.58-1.16-5.03-1.6-7.86-1.54-1.77-.13-3.3.06-4.96.77-.73.2-1.4.44-2.14.77-2.5 1.85-4.17 4.1-5.2 7.04-.75 2.45-1.24 4.56-1.5 7.13 2.22-1.35 4.5-1.86 7.07-1.67 3.3.26 5.76 3.14 5.46 6.4.3 3.2.3 5.84 0 8.98-.44 1.67-.93 2.95-1.6 4.5-.44 1.2-1.05 2.42-1.3 3.45 1.05-.08 1.97.24 2.7.95.98 1.02 1.47 2.3 1.35 3.78h.13v1.66c-.56 6.08-.07 11.34 1.7 17.23.44.7 1 1.16 1.73 1.47.7.45 1.36.7 2.16.7 2.7.27 5.15-.57 7.1-2.36 1.3-1.35 1.97-2.82 2.1-4.68.5-3.14 1.53-11.98 1.65-14.1-.1-1.15.13-2.1.7-3.14.48-.77 1.1-1.28 1.9-1.66-3.5-3.9-5.84-7.82-7.62-12.82z" stroke="#000" stroke-opacity="0" fill="#f2f2f2"/><path d="M406.56 327.44c-25.12 0-45.5-7.06-45.5-16.4v87.3c0 8.93 20.02 16.3 44.86 16.4h.64c25.12 0 45.5-7.06 45.5-16.4v-87.3c0 9.03-20.38 16.4-45.5 16.4z" stroke="#000" stroke-opacity="0" fill="url(#b)"/><path d="M452.06 311.1c0 9.06-20.38 16.4-45.5 16.4s-45.5-7.08-45.5-16.4c0-9.3 20.38-16.37 45.5-16.37s45.5 7.08 45.5 16.38" stroke="#000" stroke-opacity="0" fill="#e8e8e8"/><path d="M441.4 309.8c0 5.8-15.62 10.47-34.82 10.47-19.26 0-34.96-4.68-34.96-10.4 0-5.74 15.63-10.48 34.96-10.48 19.27 0 34.83 4.67 34.83 10.4" stroke="#000" stroke-opacity="0" fill="#50e6ff"/><path d="M406.6 312.42c-9.9-.24-18.3.98-27.7 4.02 9.4 3 17.8 4.14 27.7 3.8 9.86.25 18.27-1 27.62-4.08-9.4-2.9-17.76-4.03-27.6-3.74z" stroke="#000" stroke-opacity="0" fill="#198ab3"/><path d="M427.86 354.83v2.94c-.3 1.54-.5 2.9-.55 4.43 0 .83 0 2.1.37 3.26.3 1.16 0 1.93 0 2.57-.06 2.24-.6 4.16-1.78 6.02-.07.2-.07.32 0 .5l.67.85c3.37-5.5 5.64-10.58 7.54-16.8 1.98-6.72 2.22-11.53.63-13.58-4.66-5.7-11.84-8-19.02-6.02 2.6 1.22 4.55 2.7 6.45 4.68 3.5 2.94 5.4 6.66 5.7 11.15zm-2.2.5c-1.97-.44-3.8-.25-5.6.65-2.08 1.28-1.4 3.9 0 7.05.75 2.18 1.48 3.97 2.46 6.02l.68 1.16c.3.58.55 1.03.73 1.42l.62.9c.85-1.48 1.22-2.9 1.22-4.56.06-.83.06-1.53 0-2.37 0-1.23 0-2.57-.3-3.47.06-1.73.24-3.14.55-4.87-.25-.77-.13-1.54-.06-2.1zm-2.16 2.96c-.37.3-.73.56-1.22.7-.37.06-.68.06-1.05 0-.36-.4-.55-.84-.5-1.35 0-.52.8-.96 1.73-1.1h1.35s.7 0 .7.58c-.14.4-.32.7-.7.9zm-33.24 6.27v-1.22c.06-.45.06-.77 0-1.22-.25-2.43-.25-4.55 0-7.05.43-2.82 1.1-5.12 2.15-7.75.87-2.63 2.15-4.68 4.12-6.66-3.32-.97-6.2-1.42-9.57-1.42-2.88-.12-5.4.58-7.85 2.12-3.68 3.33-5.28 7.95-4.42 12.88.68 5.64 1.78 10.38 3.5 15.83 2.45 8 5.2 12.94 7.6 13.78 1.1.3 2.2 0 3.38-1.54 1.96-2.37 3.8-4.42 4.84-5.64-3.3-3.33-4.54-7.76-3.43-12.37zm1.84 2.82c0 1.4.12 2.55.43 3.9.43 1.2 1.04 2.17 1.84 3.13.74.77 1.53 1.35 2.5 1.8.93.32 1.73.5 2.77.5 0-1.14 1-2.68 1.6-4.22.67-1.4 1.1-2.6 1.53-4.15.2-2.76.2-5.06 0-7.82 0-.64 0-1.35-.43-2.1-.06-.78-.36-1.42-.86-1.94-.6-.58-1.22-.9-2.02-1.16h-1.4c-1.24.2-2.28.45-3.38 1.03-.86.38-1.54.76-2.27 1.34v8.92zm4.66-9.5c.68-.2 1.35-.2 2.03 0 .48.07.9.2 1.33.45.62 0 .68.77.62.96-.2.4-.5.72-.86.9-.13-.06-.26-.12-.44-.25-1.04-.2-1.78-.96-1.96-1.98zm5.28 21.2c-.37 0-.68.14-.92.4l-1 1.2c-1.2 1.5-1.7 2-5.2 2.7-.67.07-1.23.26-1.84.7.55.4 1.04.65 1.72.78 1.72.58 3.37.58 5.1 0 1.1-.5 1.9-1.02 2.75-1.86.74-.57 1.23-1.28 1.47-2.18.06-.77-.18-1.4-.73-1.98-.32-.2-.7-.26-1.06-.13zm32.7 0c-2.7.97-5.3.97-8 0-.35-.12-.66-.12-1.03 0-.48.14-.9.46-1.15.97-.13.77-.13 1.4 0 2.18 2.7.64 5.2.4 7.78-.7 1.36-.58 2.4-1.28 3.38-2.37zm-17-15.1c-1.05-2.9-2.45-7.06 1.22-9.62 2.03-1.1 4.1-1.48 6.32-1.1-.98-3.13-2.33-5.63-4.54-8.06l-.67-.7-.43-.46c-.12-.2-.25-.32-.43-.45-1.46-1.27-2.93-2.17-4.77-2.94-2.58-1.15-5.03-1.6-7.86-1.53-1.77-.13-3.3.06-4.96.77-.73.2-1.4.45-2.14.77-2.5 1.85-4.17 4.1-5.2 7.04-.75 2.45-1.24 4.56-1.5 7.13 2.22-1.35 4.5-1.86 7.07-1.67 3.3.26 5.76 3.14 5.46 6.4.3 3.2.3 5.84 0 8.98-.44 1.67-.93 2.95-1.6 4.5-.44 1.2-1.05 2.42-1.3 3.45 1.05-.08 1.97.24 2.7.95.98 1.02 1.47 2.3 1.35 3.78h.13v1.66c-.56 6.08-.07 11.34 1.7 17.23.44.7 1 1.16 1.73 1.48.7.45 1.36.7 2.16.7 2.7.27 5.15-.57 7.1-2.36 1.3-1.35 1.97-2.82 2.1-4.68.5-3.14 1.53-11.98 1.65-14.1-.1-1.15.13-2.1.7-3.14.48-.76 1.1-1.28 1.9-1.66-3.5-3.9-5.84-7.82-7.62-12.82z" stroke="#000" stroke-opacity="0" fill="#f2f2f2"/><use xlink:href="#c" transform="matrix(1,0,0,1,331.05914707776634,423.73414488589333) translate(46.099999999999994 14.4)"/><path d="M166.56 327.44c-25.12 0-45.5-7.06-45.5-16.4v87.3c0 8.93 20.02 16.3 44.86 16.4h.64c25.12 0 45.5-7.06 45.5-16.4v-87.3c0 9.03-20.38 16.4-45.5 16.4z" stroke="#000" stroke-opacity="0" fill="url(#d)"/><path d="M212.06 311.1c0 9.06-20.38 16.4-45.5 16.4s-45.5-7.08-45.5-16.4c0-9.3 20.38-16.37 45.5-16.37s45.5 7.08 45.5 16.38" stroke="#000" stroke-opacity="0" fill="#e8e8e8"/><path d="M201.4 309.8c0 5.8-15.62 10.47-34.82 10.47-19.26 0-34.97-4.68-34.97-10.4.02-5.74 15.65-10.48 34.98-10.48 19.27 0 34.83 4.67 34.83 10.4" stroke="#000" stroke-opacity="0" fill="#50e6ff"/><path d="M166.6 312.42c-9.9-.24-18.3.98-27.7 4.02 9.4 3 17.8 4.14 27.7 3.8 9.86.25 18.27-1 27.62-4.08-9.4-2.9-17.76-4.03-27.6-3.74z" stroke="#000" stroke-opacity="0" fill="#198ab3"/><path d="M187.86 354.83v2.94c-.3 1.54-.5 2.9-.55 4.43 0 .83 0 2.1.37 3.26.3 1.16 0 1.93 0 2.57-.06 2.24-.6 4.16-1.77 6.02-.07.2-.07.32 0 .5l.67.85c3.37-5.5 5.64-10.58 7.54-16.8 1.98-6.72 2.22-11.53.63-13.58-4.66-5.7-11.84-8-19.02-6.02 2.6 1.22 4.55 2.7 6.45 4.68 3.5 2.94 5.4 6.66 5.7 11.15zm-2.2.5c-1.97-.44-3.8-.25-5.6.65-2.08 1.28-1.4 3.9 0 7.05.75 2.18 1.48 3.97 2.46 6.02l.68 1.16c.3.58.55 1.03.73 1.42l.62.9c.85-1.48 1.22-2.9 1.22-4.56.06-.83.06-1.53 0-2.37 0-1.23 0-2.57-.3-3.47.06-1.73.24-3.14.55-4.87-.25-.77-.13-1.54-.06-2.1zm-2.16 2.96c-.37.3-.73.56-1.22.7-.37.06-.68.06-1.05 0-.36-.4-.55-.84-.5-1.35 0-.52.8-.96 1.73-1.1h1.35s.7 0 .7.58c-.14.4-.32.7-.7.9zm-33.24 6.27v-1.22c.06-.45.06-.77 0-1.22-.25-2.43-.25-4.55 0-7.05.43-2.82 1.1-5.12 2.15-7.75.87-2.63 2.15-4.68 4.12-6.66-3.32-.97-6.2-1.42-9.57-1.42-2.88-.12-5.4.58-7.85 2.12-3.68 3.33-5.28 7.95-4.42 12.88.68 5.64 1.78 10.38 3.5 15.83 2.45 8 5.2 12.94 7.6 13.78 1.1.3 2.2 0 3.38-1.54 1.96-2.37 3.8-4.42 4.84-5.64-3.3-3.33-4.54-7.76-3.43-12.37zm1.84 2.82c0 1.4.12 2.55.43 3.9.43 1.2 1.04 2.17 1.84 3.13.74.77 1.53 1.35 2.5 1.8.93.32 1.73.5 2.77.5 0-1.14 1-2.68 1.6-4.22.67-1.4 1.1-2.6 1.53-4.15.2-2.76.2-5.06 0-7.82 0-.64 0-1.35-.43-2.1-.06-.78-.37-1.42-.86-1.94-.6-.58-1.22-.9-2.02-1.16h-1.4c-1.24.2-2.28.45-3.38 1.03-.86.38-1.54.76-2.27 1.34v8.92zm4.66-9.5c.68-.2 1.35-.2 2.03 0 .48.07.9.2 1.33.45.62 0 .68.77.62.96-.2.4-.5.72-.86.9-.13-.06-.26-.12-.44-.25-1.04-.2-1.78-.96-1.96-1.98zm5.28 21.2c-.37 0-.68.14-.92.4l-1 1.2c-1.2 1.5-1.7 2-5.2 2.7-.67.07-1.22.26-1.84.7.55.4 1.04.65 1.72.78 1.72.58 3.37.58 5.1 0 1.1-.5 1.9-1.02 2.75-1.86.74-.57 1.23-1.28 1.47-2.18.06-.77-.18-1.4-.73-1.98-.32-.2-.7-.26-1.06-.13zm32.7 0c-2.7.97-5.3.97-8 0-.35-.12-.66-.12-1.03 0-.48.14-.9.46-1.15.97-.13.77-.13 1.4 0 2.18 2.7.64 5.2.4 7.78-.7 1.35-.58 2.4-1.28 3.38-2.37zm-17-15.1c-1.05-2.9-2.46-7.06 1.22-9.62 2.03-1.1 4.1-1.48 6.32-1.1-.98-3.13-2.33-5.63-4.54-8.06l-.67-.7-.43-.46c-.12-.2-.25-.32-.43-.45-1.46-1.27-2.93-2.17-4.77-2.94-2.58-1.15-5.03-1.6-7.86-1.53-1.77-.13-3.3.06-4.96.77-.73.2-1.4.45-2.14.77-2.5 1.85-4.17 4.1-5.2 7.04-.75 2.45-1.24 4.56-1.48 7.13 2.2-1.35 4.47-1.86 7.05-1.67 3.3.26 5.76 3.14 5.46 6.4.3 3.2.3 5.84 0 8.98-.44 1.67-.93 2.95-1.6 4.5-.44 1.2-1.05 2.42-1.3 3.45 1.05-.08 1.97.24 2.7.95.98 1.02 1.47 2.3 1.35 3.78h.13v1.66c-.56 6.08-.07 11.34 1.7 17.23.44.7 1 1.16 1.73 1.48.7.45 1.36.7 2.16.7 2.7.27 5.15-.57 7.1-2.36 1.3-1.35 1.97-2.82 2.1-4.68.5-3.14 1.53-11.98 1.65-14.1-.1-1.15.13-2.1.7-3.14.48-.76 1.1-1.28 1.9-1.66-3.5-3.9-5.84-7.82-7.62-12.82z" stroke="#000" stroke-opacity="0" fill="#f2f2f2"/><use xlink:href="#e" transform="matrix(1,0,0,1,91.05914707776634,423.73414488589333) translate(46.099999999999994 14.4)"/><path d="M247.2 190.05l-69.35 90.03" stroke="#1071e5" stroke-width="2" fill="none"/><path d="M248.76 189.66l-.78 1.02-1.6-1.22.47-.6z" stroke="#1071e5" stroke-width=".05" fill="#1071e5"/><path d="M168.53 292.17l5.04-14.13 7.34 5.66z" stroke="#1071e5" stroke-width="2" fill="#1071e5"/><path d="M317 189.72l77.55 90.94" stroke="#1071e5" stroke-width="2" fill="none"/><path d="M317.77 189.1l-1.52 1.3-.9-1.04 1.97-.8z" stroke="#1071e5" stroke-width=".05" fill="#1071e5"/><path d="M404.46 292.27l-12.78-7.84 7.05-6.02z" stroke="#1071e5" stroke-width="2" fill="#1071e5"/><path d="M239 26a6 6 0 0 1 6-6h68a6 6 0 0 1 6 6v51.33a6 6 0 0 1-6 6h-68a6 6 0 0 1-6-6z" stroke="#000" stroke-opacity="0" fill="#fff" fill-opacity="0"/><use xlink:href="#f" transform="matrix(1,0,0,1,244.00597605494505,24.999999999999993) translate(6.099999999999998 19.799999999999997)"/><use xlink:href="#g" transform="matrix(1,0,0,1,244.00597605494505,24.999999999999993) translate(-3.4250000000000043 41.4)"/><path d="M203.35 300.28l67.2-90.68" stroke="#1071e5" stroke-width="2" fill="none"/><path d="M204.17 300.85l-.52.7-.87-.46-1-.4.78-1.04z" stroke="#1071e5" stroke-width=".05" fill="#1071e5"/><path d="M279.63 197.33l-4.77 14.23-7.44-5.52z" stroke="#1071e5" stroke-width="2" fill="#1071e5"/><path d="M365.27 302.9l-72.4-93.53" stroke="#1071e5" stroke-width="2" fill="none"/><path d="M366.7 303.1l-.07.04-1.55 1.14-.6-.8 1.57-1.2z" stroke="#1071e5" stroke-width=".05" fill="#1071e5"/><path d="M283.54 197.3l12.4 8.44-7.33 5.67z" stroke="#1071e5" stroke-width="2" fill="#1071e5"/><path d="M213.06 336.57h129.5" stroke="#1071e5" stroke-width="2" fill="none"/><path d="M213.1 337.57h-1.04v-2h1.03z" stroke="#1071e5" stroke-width=".05" fill="#1071e5"/><path d="M357.82 336.57l-14.26 4.63v-9.27z" stroke="#1071e5" stroke-width="2" fill="#1071e5"/><path d="M360.06 368.98h-129.5" stroke="#1071e5" stroke-width="2" fill="none"/><path d="M361.06 369.98h-1.03v-2h1.03z" stroke="#1071e5" stroke-width=".05" fill="#1071e5"/><path d="M215.3 368.98l14.26-4.63v9.27z" stroke="#1071e5" stroke-width="2" fill="#1071e5"/><path d="M102.56 337.55H93.5m-9.07 0H66.3m-9.05 0H39.12m-9.06 0H21" stroke="#cc4e00" stroke-width="2" fill="none"/><path d="M117.82 337.55l-14.26 4.63v-9.27z" stroke="#cc4e00" stroke-width="2" fill="#cc4e00"/><path d="M21.03 337.55H20M470.56 334.73h9.94m9.95 0h19.9m9.93 0h19.9m9.94 0h9.94" stroke="#cc4e00" stroke-width="2" fill="none"/><path d="M455.3 334.73l14.26-4.63v9.27z" stroke="#cc4e00" stroke-width="2" fill="#cc4e00"/><path d="M560.03 334.73h1.03M217.56 118.86h-10.2m-10.2 0h-20.4m-10.2 0h-20.4m-10.2 0h-10.2" stroke="#cc4e00" stroke-width="2" fill="none"/><path d="M232.82 118.86l-14.26 4.63v-9.28z" stroke="#cc4e00" stroke-width="2" fill="#cc4e00"/><path d="M125.78 118.86h-1.03" stroke="#cc4e00" stroke-width="2" fill="none"/><path d="M102.56 370.95H93.6m-8.93 0h-17.9m-8.93 0h-17.9m-8.94 0h-8.94" stroke="#008a0e" stroke-width="2" fill="none"/><path d="M117.82 370.95l-14.26 4.63v-9.27z" stroke="#008a0e" stroke-width="2" fill="#008a0e"/><path d="M22.09 370.95h-1.04M470.56 369.96h9.94m9.95 0h19.9m9.93 0h19.9m9.94 0h9.94" stroke="#008a0e" stroke-width="2" fill="none"/><path d="M455.3 369.96l14.26-4.63v9.27z" stroke="#008a0e" stroke-width="2" fill="#008a0e"/><path d="M560.03 369.96h1.03M217.56 149.3h-10.2m-10.2 0h-20.4m-10.2 0h-20.4m-10.2 0h-10.2" stroke="#008a0e" stroke-width="2" fill="none"/><path d="M232.82 149.3l-14.26 4.64v-9.27z" stroke="#008a0e" stroke-width="2" fill="#008a0e"/><path d="M125.78 149.3h-1.03" stroke="#008a0e" stroke-width="2" fill="none"/><path d="M361.06 32a12 12 0 0 1 12-12H648a12 12 0 0 1 12 12v173.36a12 12 0 0 1-12 12H373.06a12 12 0 0 1-12-12z" fill="#fff"/><path d="M393.43 20h20.36m10.17 0h20.37m10.18 0h20.37m10.17 0h20.37m10.18 0H536m10.17 0h20.37m10.18 0h20.37m10.17 0h20.36m10.2 0H648l1.88.15 1.83.44 1.75.7 1.6 1 1.44 1.2 1.2 1.45 1 1.6.7 1.74.45 1.82L660 32v9.63m0 9.63v19.26m0 9.64v19.26m0 9.63v19.26m0 9.64v19.26m0 9.64v19.26m0 9.63v9.63l-.15 1.88-.44 1.83-.7 1.74-1 1.6-1.22 1.44-1.43 1.23-1.6.98-1.74.72-1.82.44-1.88.16h-10.18m-10.2 0h-20.35m-10.18 0H576.7m-10.18 0h-20.37m-10.18 0H515.6m-10.18 0h-20.37m-10.18 0H454.5m-10.18 0h-20.37m-10.18 0H393.4m-10.18 0h-10.18l-1.88-.15-1.83-.43-1.74-.72-1.6-.98-1.43-1.22-1.22-1.44-.98-1.6-.72-1.73-.44-1.83-.14-1.88v-9.63m0-9.63v-19.26m0-9.64v-19.26m0-9.63v-19.25m0-9.63V80.16m0-9.64V51.26m0-9.63V32l.15-1.88.45-1.83.72-1.75.98-1.6 1.22-1.43 1.44-1.23 1.6-1 1.75-.7 1.83-.45 1.88-.15h10.18" stroke="#dfe3e8" stroke-width="2" fill="none"/><path d="M417.06 93.6c0 6.63-5.37 12-12 12s-12-5.37-12-12 5.37-12 12-12 12 5.37 12 12z" stroke="#000" stroke-opacity=".25" fill="#cc4e00"/><path d="M417.06 125.6c0 6.63-5.37 12-12 12s-12-5.37-12-12 5.37-12 12-12 12 5.37 12 12z" stroke="#000" stroke-opacity=".25" fill="#008a0e"/><path d="M417.06 157.6c0 6.63-5.37 12-12 12s-12-5.37-12-12 5.37-12 12-12 12 5.37 12 12z" stroke="#000" stroke-opacity=".25" fill="#1071e5"/><use xlink:href="#h" transform="matrix(1,0,0,1,393.05914707776634,43.99999999999999) translate(0 14.6)"/><use xlink:href="#i" transform="matrix(1,0,0,1,393.05914707776634,43.99999999999999) translate(113.75000000000001 14.6)"/><use xlink:href="#j" transform="matrix(1,0,0,1,429.05914707776634,113.6) translate(0 14.8)"/><use xlink:href="#k" transform="matrix(1,0,0,1,429.05914707776634,81.6) translate(0 14.8)"/><g><use xlink:href="#l" transform="matrix(1,0,0,1,429.05914707776634,145.6) translate(0 14.8)"/><use xlink:href="#m" transform="matrix(1,0,0,1,429.05914707776634,145.6) translate(33.40555555555556 14.8)"/></g><defs><linearGradient gradientUnits="userSpaceOnUse" id="a" x1="236" y1="134.81" x2="327.07" y2="134.79"><stop offset="0%" stop-color="#005ba1"/><stop offset="7%" stop-color="#0060a9"/><stop offset="36%" stop-color="#0071c8"/><stop offset="52%" stop-color="#0078d4"/><stop offset="64%" stop-color="#0074cd"/><stop offset="82%" stop-color="#006abb"/><stop offset="100%" stop-color="#005ba1"/></linearGradient><linearGradient gradientUnits="userSpaceOnUse" id="b" x1="361" y1="354.81" x2="452.07" y2="354.79"><stop offset="0%" stop-color="#005ba1"/><stop offset="7%" stop-color="#0060a9"/><stop offset="36%" stop-color="#0071c8"/><stop offset="52%" stop-color="#0078d4"/><stop offset="64%" stop-color="#0074cd"/><stop offset="82%" stop-color="#006abb"/><stop offset="100%" stop-color="#005ba1"/></linearGradient><path fill="#e6e6e6" d="M135-194c87-1 58 113 63 194h-50c-7-57 23-157-34-157-59 0-34 97-39 157H25l-1-190h47c2 12-1 28 3 38 12-26 28-41 61-42" id="n"/><path fill="#e6e6e6" d="M110-194c64 0 96 36 96 99 0 64-35 99-97 99-61 0-95-36-95-99 0-62 34-99 96-99zm-1 164c35 0 45-28 45-65 0-40-10-65-43-65-34 0-45 26-45 65 0 36 10 65 43 65" id="o"/><path fill="#e6e6e6" d="M88-194c31-1 46 15 58 34l-1-101h50l1 261h-48c-2-10 0-23-3-31C134-8 116 4 84 4 32 4 16-41 15-95c0-56 19-97 73-99zm17 164c33 0 40-30 41-66 1-37-9-64-41-64s-38 30-39 65c0 43 13 65 39 65" id="p"/><path fill="#e6e6e6" d="M185-48c-13 30-37 53-82 52C43 2 14-33 14-96s30-98 90-98c62 0 83 45 84 108H66c0 31 8 55 39 56 18 0 30-7 34-22zm-45-69c5-46-57-63-70-21-2 6-4 13-4 21h74" id="q"/><path fill="#e6e6e6" d="M14-72v-43h91v43H14" id="r"/><path fill="#e6e6e6" d="M128-127c34 4 56 21 59 58 7 91-148 94-172 28-4-9-6-17-7-26l51-5c1 24 16 35 40 36 23 0 39-12 38-36-1-31-31-36-65-34v-40c32 2 59-3 59-33 0-20-13-33-34-33s-33 13-35 32l-50-3c6-44 37-68 86-68 50 0 83 20 83 66 0 35-22 52-53 58" id="s"/><g id="c"><use transform="matrix(0.05,0,0,0.05,0,0)" xlink:href="#n"/><use transform="matrix(0.05,0,0,0.05,10.950000000000001,0)" xlink:href="#o"/><use transform="matrix(0.05,0,0,0.05,21.900000000000002,0)" xlink:href="#p"/><use transform="matrix(0.05,0,0,0.05,32.85,0)" xlink:href="#q"/><use transform="matrix(0.05,0,0,0.05,42.85,0)" xlink:href="#r"/><use transform="matrix(0.05,0,0,0.05,48.800000000000004,0)" xlink:href="#s"/></g><linearGradient gradientUnits="userSpaceOnUse" id="d" x1="121" y1="354.81" x2="212.07" y2="354.79"><stop offset="0%" stop-color="#005ba1"/><stop offset="7%" stop-color="#0060a9"/><stop offset="36%" stop-color="#0071c8"/><stop offset="52%" stop-color="#0078d4"/><stop offset="64%" stop-color="#0074cd"/><stop offset="82%" stop-color="#006abb"/><stop offset="100%" stop-color="#005ba1"/></linearGradient><path fill="#e6e6e6" d="M182-182c0 78-84 86-111 141h115V0H12c-6-101 99-100 120-180 1-22-12-31-33-32-23 0-32 14-35 34l-49-3c5-45 32-70 84-70 51 0 83 22 83 69" id="t"/><g id="e"><use transform="matrix(0.05,0,0,0.05,0,0)" xlink:href="#n"/><use transform="matrix(0.05,0,0,0.05,10.950000000000001,0)" xlink:href="#o"/><use transform="matrix(0.05,0,0,0.05,21.900000000000002,0)" xlink:href="#p"/><use transform="matrix(0.05,0,0,0.05,32.85,0)" xlink:href="#q"/><use transform="matrix(0.05,0,0,0.05,42.85,0)" xlink:href="#r"/><use transform="matrix(0.05,0,0,0.05,48.800000000000004,0)" xlink:href="#t"/></g><path fill="#e6e6e6" d="M23 0v-37h61v-169l-59 37v-38l62-41h46v211h57V0H23" id="u"/><g id="f"><use transform="matrix(0.05,0,0,0.05,0,0)" xlink:href="#n"/><use transform="matrix(0.05,0,0,0.05,10.950000000000001,0)" xlink:href="#o"/><use transform="matrix(0.05,0,0,0.05,21.900000000000002,0)" xlink:href="#p"/><use transform="matrix(0.05,0,0,0.05,32.85,0)" xlink:href="#q"/><use transform="matrix(0.05,0,0,0.05,42.85,0)" xlink:href="#r"/><use transform="matrix(0.05,0,0,0.05,48.800000000000004,0)" xlink:href="#u"/></g><path fill="#e6e6e6" d="M67-93c0 74 22 123 53 168H70C40 30 18-18 18-93s22-123 52-168h50c-32 44-53 94-53 168" id="v"/><path fill="#e6e6e6" d="M135-194c53 0 70 44 70 98 0 56-19 98-73 100-31 1-45-17-59-34 3 33 2 69 2 105H25l-1-265h48c2 10 0 23 3 31 11-24 29-35 60-35zM114-30c33 0 39-31 40-66 0-38-9-64-40-64-56 0-55 130 0 130" id="w"/><path fill="#e6e6e6" d="M135-150c-39-12-60 13-60 57V0H25l-1-190h47c2 13-1 29 3 40 6-28 27-53 61-41v41" id="x"/><path fill="#e6e6e6" d="M25-224v-37h50v37H25zM25 0v-190h50V0H25" id="y"/><path fill="#e6e6e6" d="M220-157c-53 9-28 100-34 157h-49v-107c1-27-5-49-29-50C55-147 81-57 75 0H25l-1-190h47c2 12-1 28 3 38 10-53 101-56 108 0 13-22 24-43 59-42 82 1 51 116 57 194h-49v-107c-1-25-5-48-29-50" id="z"/><path fill="#e6e6e6" d="M133-34C117-15 103 5 69 4 32 3 11-16 11-54c-1-60 55-63 116-61 1-26-3-47-28-47-18 1-26 9-28 27l-52-2c7-38 36-58 82-57s74 22 75 68l1 82c-1 14 12 18 25 15v27c-30 8-71 5-69-32zm-48 3c29 0 43-24 42-57-32 0-66-3-65 30 0 17 8 27 23 27" id="A"/><path fill="#e6e6e6" d="M123 10C108 53 80 86 19 72V37c35 8 53-11 59-39L3-190h52l48 148c12-52 28-100 44-148h51" id="B"/><path fill="#e6e6e6" d="M102-93c0 74-22 123-52 168H0C30 29 54-18 53-93c0-74-22-123-53-168h50c30 45 52 94 52 168" id="C"/><g id="g"><use transform="matrix(0.05,0,0,0.05,0,0)" xlink:href="#v"/><use transform="matrix(0.05,0,0,0.05,5.95,0)" xlink:href="#w"/><use transform="matrix(0.05,0,0,0.05,16.900000000000002,0)" xlink:href="#x"/><use transform="matrix(0.05,0,0,0.05,23.900000000000002,0)" xlink:href="#y"/><use transform="matrix(0.05,0,0,0.05,28.900000000000002,0)" xlink:href="#z"/><use transform="matrix(0.05,0,0,0.05,44.900000000000006,0)" xlink:href="#A"/><use transform="matrix(0.05,0,0,0.05,54.900000000000006,0)" xlink:href="#x"/><use transform="matrix(0.05,0,0,0.05,61.900000000000006,0)" xlink:href="#B"/><use transform="matrix(0.05,0,0,0.05,71.9,0)" xlink:href="#C"/></g><path d="M182-130c37 4 62 22 62 59C244 23 116-4 24 0v-248c84 5 203-23 205 63 0 31-19 50-47 55zM76-148c40-3 101 13 101-30 0-44-60-28-101-31v61zm0 110c48-3 116 14 116-37 0-48-69-32-116-35v72" id="D"/><path d="M25-224v-37h50v37H25zM25 0v-190h50V0H25" id="E"/><path d="M88-194c31-1 46 15 58 34l-1-101h50l1 261h-48c-2-10 0-23-3-31C134-8 116 4 84 4 32 4 16-41 15-95c0-56 19-97 73-99zm17 164c33 0 40-30 41-66 1-37-9-64-41-64s-38 30-39 65c0 43 13 65 39 65" id="F"/><path d="M135-150c-39-12-60 13-60 57V0H25l-1-190h47c2 13-1 29 3 40 6-28 27-53 61-41v41" id="G"/><path d="M185-48c-13 30-37 53-82 52C43 2 14-33 14-96s30-98 90-98c62 0 83 45 84 108H66c0 31 8 55 39 56 18 0 30-7 34-22zm-45-69c5-46-57-63-70-21-2 6-4 13-4 21h74" id="H"/><path d="M190-63c-7 42-38 67-86 67-59 0-84-38-90-98-12-110 154-137 174-36l-49 2c-2-19-15-32-35-32-30 0-35 28-38 64-6 74 65 87 74 30" id="I"/><path d="M115-3C79 11 28 4 28-45v-112H4v-33h27l15-45h31v45h36v33H77v99c-1 23 16 31 38 25v30" id="J"/><path d="M110-194c64 0 96 36 96 99 0 64-35 99-97 99-61 0-95-36-95-99 0-62 34-99 96-99zm-1 164c35 0 45-28 45-65 0-40-10-65-43-65-34 0-45 26-45 65 0 36 10 65 43 65" id="K"/><path d="M135-194c87-1 58 113 63 194h-50c-7-57 23-157-34-157-59 0-34 97-39 157H25l-1-190h47c2 12-1 28 3 38 12-26 28-41 61-42" id="L"/><path d="M133-34C117-15 103 5 69 4 32 3 11-16 11-54c-1-60 55-63 116-61 1-26-3-47-28-47-18 1-26 9-28 27l-52-2c7-38 36-58 82-57s74 22 75 68l1 82c-1 14 12 18 25 15v27c-30 8-71 5-69-32zm-48 3c29 0 43-24 42-57-32 0-66-3-65 30 0 17 8 27 23 27" id="M"/><path d="M25 0v-261h50V0H25" id="N"/><g id="h"><use transform="matrix(0.05,0,0,0.05,0,0)" xlink:href="#D"/><use transform="matrix(0.05,0,0,0.05,12.950000000000001,0)" xlink:href="#E"/><use transform="matrix(0.05,0,0,0.05,17.950000000000003,0)" xlink:href="#F"/><use transform="matrix(0.05,0,0,0.05,28.900000000000006,0)" xlink:href="#E"/><use transform="matrix(0.05,0,0,0.05,33.900000000000006,0)" xlink:href="#G"/><use transform="matrix(0.05,0,0,0.05,40.900000000000006,0)" xlink:href="#H"/><use transform="matrix(0.05,0,0,0.05,50.900000000000006,0)" xlink:href="#I"/><use transform="matrix(0.05,0,0,0.05,60.900000000000006,0)" xlink:href="#J"/><use transform="matrix(0.05,0,0,0.05,66.85000000000001,0)" xlink:href="#E"/><use transform="matrix(0.05,0,0,0.05,71.85000000000001,0)" xlink:href="#K"/><use transform="matrix(0.05,0,0,0.05,82.80000000000001,0)" xlink:href="#L"/><use transform="matrix(0.05,0,0,0.05,93.75000000000001,0)" xlink:href="#M"/><use transform="matrix(0.05,0,0,0.05,103.75,0)" xlink:href="#N"/></g><path d="M240-174c0 40-23 61-54 70L253 0h-59l-57-94H76V0H24v-248c93 4 217-23 216 74zM76-134c48-2 112 12 112-38 0-48-66-32-112-35v73" id="O"/><path d="M135-194c53 0 70 44 70 98 0 56-19 98-73 100-31 1-45-17-59-34 3 33 2 69 2 105H25l-1-265h48c2 10 0 23 3 31 11-24 29-35 60-35zM114-30c33 0 39-31 40-66 0-38-9-64-40-64-56 0-55 130 0 130" id="P"/><g id="i"><use transform="matrix(0.05,0,0,0.05,0,0)" xlink:href="#O"/><use transform="matrix(0.05,0,0,0.05,12.950000000000001,0)" xlink:href="#H"/><use transform="matrix(0.05,0,0,0.05,22.950000000000003,0)" xlink:href="#P"/><use transform="matrix(0.05,0,0,0.05,33.900000000000006,0)" xlink:href="#N"/><use transform="matrix(0.05,0,0,0.05,38.900000000000006,0)" xlink:href="#E"/><use transform="matrix(0.05,0,0,0.05,43.900000000000006,0)" xlink:href="#I"/><use transform="matrix(0.05,0,0,0.05,53.900000000000006,0)" xlink:href="#M"/><use transform="matrix(0.05,0,0,0.05,63.900000000000006,0)" xlink:href="#J"/><use transform="matrix(0.05,0,0,0.05,69.85000000000001,0)" xlink:href="#E"/><use transform="matrix(0.05,0,0,0.05,74.85000000000001,0)" xlink:href="#K"/><use transform="matrix(0.05,0,0,0.05,85.80000000000001,0)" xlink:href="#L"/></g><path d="M233-177c-1 41-23 64-60 70L243 0h-38l-65-103H63V0H30v-248c88 3 205-21 203 71zM63-129c60-2 137 13 137-47 0-61-80-42-137-45v92" id="Q"/><path d="M100-194c63 0 86 42 84 106H49c0 40 14 67 53 68 26 1 43-12 49-29l28 8c-11 28-37 45-77 45C44 4 14-33 15-96c1-61 26-98 85-98zm52 81c6-60-76-77-97-28-3 7-6 17-6 28h103" id="R"/><path d="M141-36C126-15 110 5 73 4 37 3 15-17 15-53c-1-64 63-63 125-63 3-35-9-54-41-54-24 1-41 7-42 31l-33-3c5-37 33-52 76-52 45 0 72 20 72 64v82c-1 20 7 32 28 27v20c-31 9-61-2-59-35zM48-53c0 20 12 33 32 33 41-3 63-29 60-74-43 2-92-5-92 41" id="S"/><path d="M85-194c31 0 48 13 60 33l-1-100h32l1 261h-30c-2-10 0-23-3-31C134-8 116 4 85 4 32 4 16-35 15-94c0-66 23-100 70-100zm9 24c-40 0-46 34-46 75 0 40 6 74 45 74 42 0 51-32 51-76 0-42-9-74-50-73" id="T"/><path d="M135-143c-3-34-86-38-87 0 15 53 115 12 119 90S17 21 10-45l28-5c4 36 97 45 98 0-10-56-113-15-118-90-4-57 82-63 122-42 12 7 21 19 24 35" id="U"/><g id="j"><use transform="matrix(0.03888888888888889,0,0,0.03888888888888889,0,0)" xlink:href="#Q"/><use transform="matrix(0.03888888888888889,0,0,0.03888888888888889,10.072222222222223,0)" xlink:href="#R"/><use transform="matrix(0.03888888888888889,0,0,0.03888888888888889,17.85,0)" xlink:href="#S"/><use transform="matrix(0.03888888888888889,0,0,0.03888888888888889,25.627777777777776,0)" xlink:href="#T"/><use transform="matrix(0.03888888888888889,0,0,0.03888888888888889,33.40555555555556,0)" xlink:href="#U"/></g><path d="M266 0h-40l-56-210L115 0H75L2-248h35L96-30l15-64 43-154h32l59 218 59-218h35" id="V"/><path d="M114-163C36-179 61-72 57 0H25l-1-190h30c1 12-1 29 2 39 6-27 23-49 58-41v29" id="W"/><path d="M24-231v-30h32v30H24zM24 0v-190h32V0H24" id="X"/><path d="M59-47c-2 24 18 29 38 22v24C64 9 27 4 27-40v-127H5v-23h24l9-43h21v43h35v23H59v120" id="Y"/><g id="k"><use transform="matrix(0.03888888888888889,0,0,0.03888888888888889,0,0)" xlink:href="#V"/><use transform="matrix(0.03888888888888889,0,0,0.03888888888888889,12.911111111111111,0)" xlink:href="#W"/><use transform="matrix(0.03888888888888889,0,0,0.03888888888888889,17.53888888888889,0)" xlink:href="#X"/><use transform="matrix(0.03888888888888889,0,0,0.03888888888888889,20.611111111111114,0)" xlink:href="#Y"/><use transform="matrix(0.03888888888888889,0,0,0.03888888888888889,24.500000000000004,0)" xlink:href="#R"/><use transform="matrix(0.03888888888888889,0,0,0.03888888888888889,32.27777777777778,0)" xlink:href="#U"/></g><path d="M30-248c118-7 216 8 213 122C240-48 200 0 122 0H30v-248zM63-27c89 8 146-16 146-99s-60-101-146-95v194" id="Z"/><g id="l"><use transform="matrix(0.03888888888888889,0,0,0.03888888888888889,0,0)" xlink:href="#Z"/><use transform="matrix(0.03888888888888889,0,0,0.03888888888888889,10.072222222222223,0)" xlink:href="#S"/><use transform="matrix(0.03888888888888889,0,0,0.03888888888888889,17.85,0)" xlink:href="#Y"/><use transform="matrix(0.03888888888888889,0,0,0.03888888888888889,21.73888888888889,0)" xlink:href="#S"/></g><path d="M115-194c55 1 70 41 70 98S169 2 115 4C84 4 66-9 55-30l1 105H24l-1-265h31l2 30c10-21 28-34 59-34zm-8 174c40 0 45-34 45-75s-6-73-45-74c-42 0-51 32-51 76 0 43 10 73 51 73" id="aa"/><path d="M24 0v-261h32V0H24" id="ab"/><path d="M96-169c-40 0-48 33-48 73s9 75 48 75c24 0 41-14 43-38l32 2c-6 37-31 61-74 61-59 0-76-41-82-99-10-93 101-131 147-64 4 7 5 14 7 22l-32 3c-4-21-16-35-41-35" id="ac"/><path d="M100-194c62-1 85 37 85 99 1 63-27 99-86 99S16-35 15-95c0-66 28-99 85-99zM99-20c44 1 53-31 53-75 0-43-8-75-51-75s-53 32-53 75 10 74 51 75" id="ad"/><path d="M117-194c89-4 53 116 60 194h-32v-121c0-31-8-49-39-48C34-167 62-67 57 0H25l-1-190h30c1 10-1 24 2 32 11-22 29-35 61-36" id="ae"/><g id="m"><use transform="matrix(0.03888888888888889,0,0,0.03888888888888889,0,0)" xlink:href="#W"/><use transform="matrix(0.03888888888888889,0,0,0.03888888888888889,4.627777777777778,0)" xlink:href="#R"/><use transform="matrix(0.03888888888888889,0,0,0.03888888888888889,12.405555555555555,0)" xlink:href="#aa"/><use transform="matrix(0.03888888888888889,0,0,0.03888888888888889,20.183333333333334,0)" xlink:href="#ab"/><use transform="matrix(0.03888888888888889,0,0,0.03888888888888889,23.255555555555556,0)" xlink:href="#X"/><use transform="matrix(0.03888888888888889,0,0,0.03888888888888889,26.32777777777778,0)" xlink:href="#ac"/><use transform="matrix(0.03888888888888889,0,0,0.03888888888888889,33.32777777777778,0)" xlink:href="#S"/><use transform="matrix(0.03888888888888889,0,0,0.03888888888888889,41.10555555555557,0)" xlink:href="#Y"/><use transform="matrix(0.03888888888888889,0,0,0.03888888888888889,44.99444444444445,0)" xlink:href="#X"/><use transform="matrix(0.03888888888888889,0,0,0.03888888888888889,48.06666666666667,0)" xlink:href="#ad"/><use transform="matrix(0.03888888888888889,0,0,0.03888888888888889,55.84444444444445,0)" xlink:href="#ae"/></g></defs></g></svg>