<svg xmlns="http://www.w3.org/2000/svg" id="Layer_1" data-name="Layer 1" viewBox="0 0 200 100" width="300" height="150"><defs><linearGradient id="linear-gradient" x1="22.73" y1="26.22" x2="32.13" y2="56.99" gradientUnits="userSpaceOnUse"><stop offset=".23" stop-color="#26aae1"/><stop offset=".48" stop-color="#1b97ca"/><stop offset="1" stop-color="#00688f"/></linearGradient><style>.cls-1{fill:#d0d1d2}.cls-2{fill:#808184}.cls-3{fill:#919396}.cls-4{fill:#9c9fa6}.cls-5{fill:#2f2f33}.cls-6{fill:url(#linear-gradient)}.cls-7{fill:#e7e6e6}.cls-8{fill:#26aae1}.cls-9{fill:#6dcef5}.cls-10{fill:#6d6f71}</style></defs><path class="cls-1" d="M46 45.72a2.17 2.17 0 00-2-2.4l-33.63-2.25h-.15a2 2 0 00-.4 0L9.39 40a2.15 2.15 0 00-1.17-1.18L5.5 37.71a2.89 2.89 0 10-2.6 4.14 2.62 2.62 0 00.45 0 3 3 0 00.35.18l1.86.78 7.64 19-1.88 3.14a2.16 2.16 0 001.85 3.26h1.23a4.62 4.62 0 108.06 0h10.61a4.62 4.62 0 108-.13 2.15 2.15 0 001.44-2 2.08 2.08 0 00-2.15-2.15H17l.65-1.09a2.65 2.65 0 00.15-.32l.37.22a2.15 2.15 0 001.12.31h.1l20.54-.88a2.21 2.21 0 00.9-.24l2-1.05a2.17 2.17 0 001.14-1.58L46 46.27a2.32 2.32 0 000-.55zm-1.29.34L42.68 59a.87.87 0 01-.46.64l-2 1a1 1 0 01-.37.1l-20.55.88a.89.89 0 01-.45-.12L16 59.85l.58 1.46a.86.86 0 01-.06.77l-1.82 3h25.65a.81.81 0 01.86.86.86.86 0 01-.87.87h-.28a4.62 4.62 0 00-5.92 0H21.38a4.62 4.62 0 00-5.92 0h-2.3a.87.87 0 01-.75-1.31l2.21-3.69-8.08-20-2.36-1a1.64 1.64 0 01-.58-.41 1.57 1.57 0 01-.71.17 1.61 1.61 0 111.58-1.84.87.87 0 01.24.06l3 1.27a.87.87 0 01.47.47l1.18 2.94a.87.87 0 01.84-1.1h.07L44 44.61a.87.87 0 01.81 1v.1a.84.84 0 01-.05.36z"/><circle class="cls-2" cx="37.11" cy="70.39" r="3.34"/><circle class="cls-3" cx="37.11" cy="70.39" r="1.89"/><path class="cls-4" d="M38.41 71a.36.36 0 01-.35.35h-1.9a.35.35 0 01-.36-.35v-4.28a.35.35 0 01.36-.35h1.9a.35.35 0 01.35.35z"/><circle class="cls-5" cx="37.11" cy="70.4" r=".63"/><circle class="cls-2" cx="18.42" cy="70.39" r="3.34"/><circle class="cls-3" cx="18.42" cy="70.39" r="1.89"/><rect class="cls-4" x="17.12" y="66.37" width="2.6" height="4.95" rx=".35" ry=".35"/><circle class="cls-5" cx="18.42" cy="70.4" r=".63"/><path class="cls-6" d="M31.24 29.36C29.33 28.6 28.1 27 26.77 25c-.68 2.93-.54 3.64-4.94 5.72a14 14 0 00-8.08 12.68 14.23 14.23 0 0028.46 0c-.01-6.75-4.33-11.4-10.97-14.04z"/><path class="cls-7" d="M44.76 45.63a.87.87 0 00-.81-1l-33.67-2.27a.87.87 0 00-.9 1.1l-1.19-2.94a.87.87 0 00-.46-.52l-3-1.27a.86.86 0 00-1.13.46.82.82 0 000 .58l-.34-.12a1.69 1.69 0 001 1.1l2.36 1 8.08 20-2.21 3.69a.87.87 0 00.75 1.31h27.11a.86.86 0 00.65-1.36l-.1-.08-.1-.06H14.69l1.82-3a.86.86 0 00.06-.77L16 59.85l2.81 1.69a.89.89 0 00.45.12l20.55-.88a1 1 0 00.37-.1l2-1a.87.87 0 00.46-.64l2.08-12.92a.84.84 0 000-.34zm-9.26 6.1l-1.4-1.4 1.4-1.41 1.41 1.41zm2.62-.19l1.41 1.41-1.41 1.41-1.41-1.41zm-15.7 0l1.41 1.41-1.41 1.41L21 52.94zm-2.62.19l-1.41-1.4 1.41-1.41 1.4 1.41zm3.83-1.4L25 48.92l1.4 1.41-1.4 1.4zm4 1.21l1.41 1.41-1.41 1.41-1.41-1.41zm1.21-1.21l1.41-1.41 1.41 1.41-1.41 1.4zm4-4l1.41 1.4-1.41 1.41-1.4-1.41zm0 5.23l1.41 1.41-1.41 1.41-1.4-1.41zm2.31-5.3h.54l-.23.23zm-4.37-.29l-.56.56-.64-.64zm-3.17.36l1.41 1.4-1.41 1.41-1.37-1.44zm-1.73-.69l-.88.89-1-1zm-2.1 2.1l-1.41 1.41L21 47.7l1.41-1.4zM21 45.28l-1.2 1.22-1.39-1.4zm-2.41 2.42l-1.41 1.41-1.4-1.41 1.41-1.4zM16 50.32l-1.38 1.38-.81-2 .78-.79zm-2.5-5.55l2.34.16.16.16-1.41 1.4-1.4-1.4zm-.12 2.93l-.27.27-.37-.91zm2.42 5.23l1.41-1.41 1.41 1.41-1.41 1.41zm2.35 5.7l-1-.59-.36-.89.4-.39 1.41 1.4zm.27-3.08l1.41-1.41 1.4 1.41L19.8 57zm1.35 3.88l.06-.06v.05zm2.94-.13h-.52L21 58.17l1.41-1.4 1.41 1.4zm.94-3.76L25 54.15l1.4 1.41L25 57zm4.53 3.52h-1l-.95-.95 1.41-1.4 1.41 1.4zm.71-3.52l1.41-1.41 1.41 1.41L30.26 57zm4.76 3.28l-1.41.06-.73-.73 1.4-1.4 1.41 1.4zm.47-3.28l1.4-1.41 1.41 1.41L35.5 57zm5 3l-1.86.08-.52-.51 1.41-1.4 1.41 1.4zm2.15-2.14l-.5.5-1.41-1.4 1.41-1.41.75.75zm-.5-4.73l-1.41-1.4 1.41-1.41 1.4 1.41zm1.81-3.42l-.6-.6.86-1-4.55-.31 1.27 1.27-1.41 1.41-1.44-1.32 1.54-1.27-1-.07 5.6.38z"/><path class="cls-8" d="M4.47 38.67a1.6 1.6 0 10-1.57 1.89 1.52 1.52 0 00.48-.09l2.89 1.21.85-1.89z"/><circle class="cls-9" cx="2.85" cy="38.95" r="1.07"/><path class="cls-10" d="M49.3 25h6.78c6 0 9.83 3.49 9.83 9.5S62.07 44 56.07 44H49.3zm6.58 15c3.23 0 5.2-1.92 5.2-5.57S59 29 55.88 29H54v11zM69.19 25h6.64a9.82 9.82 0 013.71.46A5.54 5.54 0 0183.06 31a5.8 5.8 0 01-2.85 5.2v.05a10.57 10.57 0 01.72 1.15l3.69 6.6h-5.19L76 37.62h-2.14V44h-4.67zm6.69 8.64a2.18 2.18 0 002.43-2.35c0-1.44-.53-2.3-2.88-2.3h-1.57v4.64zM86.95 25h4.67v12c0 2 1.31 3.07 3.31 3.07s3.3-1.07 3.3-3.07V25h4.67v12c0 4.29-3.15 7.33-7.94 7.33s-8-3-8-7.33zM107.11 25H115c3.71 0 6.22 2.72 6.22 6.56s-2.51 6.62-6.22 6.62h-3.25V44h-4.66zm7 9.17a2.32 2.32 0 002.43-2.61 2.26 2.26 0 00-2.39-2.56h-2.38v5.17zM133.13 40h-6L126 44h-4.79l6.51-19h4.9l6.48 19h-4.8zm-3-10.72s-.43 2.08-.78 3.28l-1.09 3.71H132l-1-3.66c-.35-1.2-.78-3.28-.78-3.28zM141.23 25h4.68v15h7.78v4h-12.46z"/><path class="cls-8" d="M58.08 48a9.68 9.68 0 017 2.62l-2.1 3.43a7.81 7.81 0 00-4.65-1.89A5 5 0 0053 57.47c0 2.75 1.85 5.53 5.28 5.53a7.61 7.61 0 004.93-2.29l2.34 3.33a10.19 10.19 0 01-7.48 3.12 9.32 9.32 0 01-9.74-9.64A9.45 9.45 0 0158.08 48zM76.65 48a9.39 9.39 0 019.71 9.48 9.71 9.71 0 11-19.42 0A9.39 9.39 0 0176.65 48zm0 15c2.78 0 5-2.39 5-5.56a5 5 0 10-10 0c-.01 3.22 2.22 5.56 5 5.56zM90.41 48.33h4.94L98 56.17c.41 1.19.94 3.06.94 3.06s.52-1.87.94-3.06l2.7-7.84h4.93l1.51 18.57h-4.55l-.47-8.37a27.64 27.64 0 010-3.12s-.62 1.95-1 3.12l-2 5.37h-3.93l-2-5.37c-.42-1.17-1-3.12-1-3.12H94a27.64 27.64 0 010 3.12l-.57 8.36h-4.55zM113.87 48.33h4.93l2.7 7.84c.41 1.19.93 3.06.93 3.06s.52-1.87.94-3.06l2.7-7.84h4.94l1.5 18.57H128l-.57-8.36a27.64 27.64 0 010-3.12h-.05s-.62 1.95-1 3.12l-2 5.37h-3.89l-1.95-5.37c-.41-1.17-1-3.12-1-3.12h-.05a27.64 27.64 0 010 3.12l-.57 8.36h-4.57zM136.36 48.33H148v3.89h-7.1v3.38h5.66v3.9h-5.66V63h7.46v3.9h-12zM151.63 48.33h6.46a9.73 9.73 0 013.62.44 5.4 5.4 0 013.43 5.41 5.64 5.64 0 01-2.78 5.06v.06a10.88 10.88 0 01.7 1.12l3.61 6.49h-5.06l-3.3-6.26h-2.13v6.26h-4.55zm6.52 8.41a2.13 2.13 0 002.36-2.29c0-1.4-.52-2.23-2.81-2.23h-1.53v4.52zM177.76 48a9.68 9.68 0 017 2.62l-2.1 3.43a7.82 7.82 0 00-4.66-1.88 5 5 0 00-5.24 5.3c0 2.75 1.81 5.58 5.24 5.58a7.61 7.61 0 004.94-2.29l2.34 3.33a10.2 10.2 0 01-7.49 3.12 9.31 9.31 0 01-9.79-9.64 9.44 9.44 0 019.76-9.57zM188 48.33h11.64v3.89h-7.09v3.38h5.66v3.9h-5.66V63H200v3.9h-12z"/></svg>