<svg xmlns="http://www.w3.org/2000/svg"
     xmlns:xlink="http://www.w3.org/1999/xlink" xmlns:lucid="lucid" width="589"
     height="588">
  <g transform="translate(-13 0)" lucid:page-tab-id="Wvqqp~Cy1-F6">
    <path
      d="M221 28a8 8 0 0 1 8-8h184a8 8 0 0 1 8 8v184a8 8 0 0 1-8 8H229a8 8 0 0 1-8-8z"
      fill="#fff"/>
    <path d="M221 92v33h200V92M221 156v33h200v-33" fill="#e6e6e6"/>
    <path d="M221 60V28a8 8 0 0 1 8-8h184a8 8 0 0 1 8 8v32" fill="#ccc"/>
    <path
      d="M221 28a8 8 0 0 1 8-8h184a8 8 0 0 1 8 8v184a8 8 0 0 1-8 8H229a8 8 0 0 1-8-8zM221 60h200"
      stroke="#333" stroke-width="2" fill="none"/>
    <use xlink:href="#a"
         transform="matrix(1,0,0,1,230.99996009999637,20) translate(57.525 23.6)"/>
    <use xlink:href="#b"
         transform="matrix(1,0,0,1,225.99996009999637,62.5) translate(0 17.1)"/>
    <use xlink:href="#c"
         transform="matrix(1,0,0,1,225.99996009999637,94.5) translate(0 17.1)"/>
    <use xlink:href="#d"
         transform="matrix(1,0,0,1,225.99996009999637,126.5) translate(0 17.1)"/>
    <use xlink:href="#e"
         transform="matrix(1,0,0,1,225.99996009999637,158.5) translate(0 17.1)"/>
    <use xlink:href="#f"
         transform="matrix(1,0,0,1,225.99996009999637,190.5) translate(0 17.1)"/>
    <path
      d="M341 248a8 8 0 0 1 8-8h184a8 8 0 0 1 8 8v152a8 8 0 0 1-8 8H349a8 8 0 0 1-8-8z"
      fill="#fff"/>
    <path d="M341 312v33h200v-33M341 376v24a8 8 0 0 0 8 8h184a8 8 0 0 0 8-8v-24"
          fill="#e6e6e6"/>
    <path d="M341 280v-32a8 8 0 0 1 8-8h184a8 8 0 0 1 8 8v32" fill="#ccc"/>
    <path
      d="M341 248a8 8 0 0 1 8-8h184a8 8 0 0 1 8 8v152a8 8 0 0 1-8 8H349a8 8 0 0 1-8-8zM341 280h200"
      stroke="#333" stroke-width="2" fill="none"/>
    <use xlink:href="#g"
         transform="matrix(1,0,0,1,350.9999600999964,240) translate(70.575 23.6)"/>
    <use xlink:href="#b"
         transform="matrix(1,0,0,1,345.9999600999964,282.5) translate(0 17.1)"/>
    <use xlink:href="#h"
         transform="matrix(1,0,0,1,345.9999600999964,314.5) translate(0 17.1)"/>
    <use xlink:href="#i"
         transform="matrix(1,0,0,1,345.9999600999964,346.5) translate(0 17.1)"/>
    <use xlink:href="#f"
         transform="matrix(1,0,0,1,345.9999600999964,378.5) translate(0 17.1)"/>
    <path
      d="M101 248a8 8 0 0 1 8-8h184a8 8 0 0 1 8 8v120a8 8 0 0 1-8 8H109a8 8 0 0 1-8-8z"
      fill="#fff"/>
    <path d="M101 312v33h200v-33" fill="#e6e6e6"/>
    <path d="M101 280v-32a8 8 0 0 1 8-8h184a8 8 0 0 1 8 8v32" fill="#ccc"/>
    <path
      d="M101 248a8 8 0 0 1 8-8h184a8 8 0 0 1 8 8v120a8 8 0 0 1-8 8H109a8 8 0 0 1-8-8zM101 280h200"
      stroke="#333" stroke-width="2" fill="none"/>
    <use xlink:href="#j"
         transform="matrix(1,0,0,1,110.99996009999637,240) translate(42.55 23.6)"/>
    <use xlink:href="#b"
         transform="matrix(1,0,0,1,105.99996009999637,282.5) translate(0 17.1)"/>
    <use xlink:href="#k"
         transform="matrix(1,0,0,1,105.99996009999637,314.5) translate(0 17.1)"/>
    <use xlink:href="#f"
         transform="matrix(1,0,0,1,105.99996009999637,346.5) translate(0 17.1)"/>
    <path
      d="M572.03 75.16l2 .47 1.87.78 1.74 1.08 1.55 1.33 1.32 1.56 1.07 1.74.77 1.88.47 2 .16 1.98v228.12l-.16 2-.47 1.98-.78 1.88-1.08 1.74-1.33 1.56-1.56 1.32-1.74 1.07-1.88.78-2 .48-1.98.16H562v-2h7.96l1.76-.14 1.68-.4 1.6-.66 1.46-.9 1.32-1.12 1.12-1.32.9-1.47.66-1.6.4-1.67.14-1.76V88.04l-.14-1.76-.4-1.68-.66-1.6-.9-1.46-1.12-1.32-1.32-1.12-1.47-.9-1.6-.66-1.68-.4-1.76-.14h-17.82v-2h17.9zM442 77v-2h27.2v2z"
      stroke="#a9afb8" stroke-width=".05" fill="#a9afb8"/>
    <path fill="#fff"/>
    <path d="M433 86h-2V66h2z" stroke="#a9afb8" stroke-width=".05"
          fill="#a9afb8"/>
    <path fill="#fff"/>
    <path d="M442 77h-20v-2h20z" stroke="#a9afb8" stroke-width=".05"
          fill="#a9afb8"/>
    <path fill="#fff"/>
    <path d="M443 86h-2V66h2z" stroke="#a9afb8" stroke-width=".05"
          fill="#a9afb8"/>
    <path d="M542.45 318.04l20 10-20 10" fill="#fff" fill-opacity="0"/>
    <path d="M564.68 328.04l-21.8 10.9-.88-1.8 18.2-9.1-18.2-9.1.9-1.8z"
          stroke="#a9afb8" stroke-width=".05" fill="#a9afb8"/>
    <path fill="#fff"/>
    <path d="M562.45 329.04h-20v-2h20z" stroke="#a9afb8" stroke-width=".05"
          fill="#a9afb8"/>
    <path fill="#fff"/>
    <path d="M563.45 338.04h-2v-20h2z" stroke="#a9afb8" stroke-width=".05"
          fill="#a9afb8"/>
    <use xlink:href="#l"
         transform="matrix(1,0,0,1,469.19166666666666,65.2000000000006) translate(0.005000000000002558 14.4)"/>
    <path
      d="M93.36 141.2H72.04l-1.76.14-1.68.4-1.6.66-1.46.9-1.32 1.12-1.12 1.32-.9 1.47-.66 1.6-.4 1.68-.14 1.76v131.72l.14 1.76.4 1.68.66 1.6.9 1.46 1.12 1.32 1.32 1.12 1.47.9 1.6.66 1.68.4 1.76.14H80v2h-8.04l-2-.16-1.98-.47-1.88-.78-1.74-1.08-1.55-1.32-1.32-1.56-1.07-1.74-.77-1.88-.47-2-.16-1.98V152.16l.16-2 .47-1.98.78-1.88 1.08-1.74L62.8 143l1.56-1.32 1.74-1.07 1.88-.77 2-.47 1.98-.16h21.4zm106.64 0h-18.7v-2H200z"
      stroke="#a9afb8" stroke-width=".05" fill="#a9afb8"/>
    <path fill="#fff"/>
    <path d="M211 150.2h-2v-20h2z" stroke="#a9afb8" stroke-width=".05"
          fill="#a9afb8"/>
    <path fill="#fff"/>
    <path d="M220 141.2h-20v-2h20z" stroke="#a9afb8" stroke-width=".05"
          fill="#a9afb8"/>
    <path fill="#fff"/>
    <path d="M201 150.2h-2v-20h2z" stroke="#a9afb8" stroke-width=".05"
          fill="#a9afb8"/>
    <path fill="#fff"/>
    <path d="M91 306h-2v-20h2z" stroke="#a9afb8" stroke-width=".05"
          fill="#a9afb8"/>
    <path fill="#fff"/>
    <path d="M100 297H80v-2h20z" stroke="#a9afb8" stroke-width=".05"
          fill="#a9afb8"/>
    <path fill="#fff"/>
    <path d="M81 306h-2v-20h2z" stroke="#a9afb8" stroke-width=".05"
          fill="#a9afb8"/>
    <use xlink:href="#m"
         transform="matrix(1,0,0,1,93.3583333333333,129.39998780434917) translate(0.005000000000002558 14.4)"/>
    <path
      d="M101 408a8 8 0 0 1 8-8h184a8 8 0 0 1 8 8v152a8 8 0 0 1-8 8H109a8 8 0 0 1-8-8z"
      fill="#fff"/>
    <path d="M101 472v33h200v-33M101 536v24a8 8 0 0 0 8 8h184a8 8 0 0 0 8-8v-24"
          fill="#e6e6e6"/>
    <path d="M101 440v-32a8 8 0 0 1 8-8h184a8 8 0 0 1 8 8v32" fill="#ccc"/>
    <path
      d="M101 408a8 8 0 0 1 8-8h184a8 8 0 0 1 8 8v152a8 8 0 0 1-8 8H109a8 8 0 0 1-8-8zM101 440h200"
      stroke="#333" stroke-width="2" fill="none"/>
    <use xlink:href="#n"
         transform="matrix(1,0,0,1,110.99996009999631,400) translate(75.575 23.6)"/>
    <use xlink:href="#b"
         transform="matrix(1,0,0,1,105.99996009999631,442.5) translate(0 17.1)"/>
    <use xlink:href="#o"
         transform="matrix(1,0,0,1,105.99996009999631,474.5) translate(0 17.1)"/>
    <use xlink:href="#p"
         transform="matrix(1,0,0,1,105.99996009999631,506.5) translate(0 17.1)"/>
    <use xlink:href="#f"
         transform="matrix(1,0,0,1,105.99996009999631,538.5) translate(0 17.1)"/>
    <path
      d="M61 476l.14 1.76.4 1.68.66 1.6.9 1.46 1.12 1.32 1.32 1.12 1.47.9 1.6.66 1.68.4 1.76.14H80v2h-8.04l-2-.16-1.98-.47-1.88-.77-1.74-1.07-1.55-1.32-1.32-1.56-1.07-1.74-.77-1.88-.47-2-.16-1.98v-73.32h2zm19-179.12h-7.96l-1.76.14-1.68.4-1.6.66-1.46.9-1.32 1.12-1.12 1.32-.9 1.47-.66 1.58-.4 1.68-.14 1.76v73.24h-2v-73.32l.16-2 .47-1.98.78-1.88 1.08-1.74 1.33-1.56 1.56-1.32 1.74-1.07 1.88-.8 2-.46 1.98-.16H80z"
      stroke="#a9afb8" stroke-width=".05" fill="#a9afb8"/>
    <path d="M99.55 498.04l-20-10 20-10" fill="#fff" fill-opacity="0"/>
    <path d="M100 478.93l-18.2 9.1 18.2 9.12-.9 1.78-21.78-10.9 21.8-10.88z"
          stroke="#a9afb8" stroke-width=".05" fill="#a9afb8"/>
    <path fill="#fff"/>
    <path d="M99.55 489.04h-20v-2h20z" stroke="#a9afb8" stroke-width=".05"
          fill="#a9afb8"/>
    <path fill="#fff"/>
    <path d="M80.55 498.04h-2v-20h2z" stroke="#a9afb8" stroke-width=".05"
          fill="#a9afb8"/>
    <path fill="#fff"/>
    <path d="M91 305.88h-2v-20h2z" stroke="#a9afb8" stroke-width=".05"
          fill="#a9afb8"/>
    <path fill="#fff"/>
    <path d="M100 296.88H80v-2h20z" stroke="#a9afb8" stroke-width=".05"
          fill="#a9afb8"/>
    <path fill="#fff"/>
    <path d="M81 305.88h-2v-20h2z" stroke="#a9afb8" stroke-width=".05"
          fill="#a9afb8"/>
    <use xlink:href="#l"
         transform="matrix(1,0,0,1,18.525000000000006,381.1600077197871) translate(0.005000000000002558 14.4)"/>
    <defs>
      <path fill="#333"
            d="M30-248c118-7 216 8 213 122C240-48 200 0 122 0H30v-248zM63-27c89 8 146-16 146-99s-60-101-146-95v194"
            id="q"/>
      <path fill="#333"
            d="M141-36C126-15 110 5 73 4 37 3 15-17 15-53c-1-64 63-63 125-63 3-35-9-54-41-54-24 1-41 7-42 31l-33-3c5-37 33-52 76-52 45 0 72 20 72 64v82c-1 20 7 32 28 27v20c-31 9-61-2-59-35zM48-53c0 20 12 33 32 33 41-3 63-29 60-74-43 2-92-5-92 41"
            id="r"/>
      <path fill="#333"
            d="M59-47c-2 24 18 29 38 22v24C64 9 27 4 27-40v-127H5v-23h24l9-43h21v43h35v23H59v120"
            id="s"/>
      <path fill="#333"
            d="M185-189c-5-48-123-54-124 2 14 75 158 14 163 119 3 78-121 87-175 55-17-10-28-26-33-46l33-7c5 56 141 63 141-1 0-78-155-14-162-118-5-82 145-84 179-34 5 7 8 16 11 25"
            id="t"/>
      <path fill="#333"
            d="M100-194c63 0 86 42 84 106H49c0 40 14 67 53 68 26 1 43-12 49-29l28 8c-11 28-37 45-77 45C44 4 14-33 15-96c1-61 26-98 85-98zm52 81c6-60-76-77-97-28-3 7-6 17-6 28h103"
            id="u"/>
      <g id="a">
        <use transform="matrix(0.05,0,0,0.05,0,0)" xlink:href="#q"/>
        <use transform="matrix(0.05,0,0,0.05,12.950000000000001,0)"
             xlink:href="#r"/>
        <use transform="matrix(0.05,0,0,0.05,22.950000000000003,0)"
             xlink:href="#s"/>
        <use transform="matrix(0.05,0,0,0.05,27.950000000000003,0)"
             xlink:href="#r"/>
        <use transform="matrix(0.05,0,0,0.05,37.95,0)" xlink:href="#t"/>
        <use transform="matrix(0.05,0,0,0.05,49.95,0)" xlink:href="#u"/>
        <use transform="matrix(0.05,0,0,0.05,59.95,0)" xlink:href="#s"/>
      </g>
      <path fill="#333" d="M24-231v-30h32v30H24zM24 0v-190h32V0H24" id="v"/>
      <path fill="#333"
            d="M85-194c31 0 48 13 60 33l-1-100h32l1 261h-30c-2-10 0-23-3-31C134-8 116 4 85 4 32 4 16-35 15-94c0-66 23-100 70-100zm9 24c-40 0-46 34-46 75 0 40 6 74 45 74 42 0 51-32 51-76 0-42-9-74-50-73"
            id="w"/>
      <g id="b">
        <use transform="matrix(0.05,0,0,0.05,0,0)" xlink:href="#v"/>
        <use transform="matrix(0.05,0,0,0.05,3.95,0)" xlink:href="#w"/>
      </g>
      <path fill="#333" d="M24 0v-261h32V0H24" id="x"/>
      <g id="c">
        <use transform="matrix(0.05,0,0,0.05,0,0)" xlink:href="#s"/>
        <use transform="matrix(0.05,0,0,0.05,5,0)" xlink:href="#v"/>
        <use transform="matrix(0.05,0,0,0.05,8.95,0)" xlink:href="#s"/>
        <use transform="matrix(0.05,0,0,0.05,13.949999999999998,0)"
             xlink:href="#x"/>
        <use transform="matrix(0.05,0,0,0.05,17.9,0)" xlink:href="#u"/>
      </g>
      <path fill="#333" d="M-5 72V49h209v23H-5" id="y"/>
      <path fill="#333"
            d="M135-143c-3-34-86-38-87 0 15 53 115 12 119 90S17 21 10-45l28-5c4 36 97 45 98 0-10-56-113-15-118-90-4-57 82-63 122-42 12 7 21 19 24 35"
            id="z"/>
      <path fill="#333"
            d="M100-194c62-1 85 37 85 99 1 63-27 99-86 99S16-35 15-95c0-66 28-99 85-99zM99-20c44 1 53-31 53-75 0-43-8-75-51-75s-53 32-53 75 10 74 51 75"
            id="A"/>
      <path fill="#333"
            d="M84 4C-5 8 30-112 23-190h32v120c0 31 7 50 39 49 72-2 45-101 50-169h31l1 190h-30c-1-10 1-25-2-33-11 22-28 36-60 37"
            id="B"/>
      <path fill="#333"
            d="M114-163C36-179 61-72 57 0H25l-1-190h30c1 12-1 29 2 39 6-27 23-49 58-41v29"
            id="C"/>
      <path fill="#333"
            d="M96-169c-40 0-48 33-48 73s9 75 48 75c24 0 41-14 43-38l32 2c-6 37-31 61-74 61-59 0-76-41-82-99-10-93 101-131 147-64 4 7 5 14 7 22l-32 3c-4-21-16-35-41-35"
            id="D"/>
      <g id="d">
        <use transform="matrix(0.05,0,0,0.05,0,0)" xlink:href="#w"/>
        <use transform="matrix(0.05,0,0,0.05,10,0)" xlink:href="#r"/>
        <use transform="matrix(0.05,0,0,0.05,20,0)" xlink:href="#s"/>
        <use transform="matrix(0.05,0,0,0.05,25,0)" xlink:href="#r"/>
        <use transform="matrix(0.05,0,0,0.05,35,0)" xlink:href="#y"/>
        <use transform="matrix(0.05,0,0,0.05,45,0)" xlink:href="#z"/>
        <use transform="matrix(0.05,0,0,0.05,54,0)" xlink:href="#A"/>
        <use transform="matrix(0.05,0,0,0.05,64,0)" xlink:href="#B"/>
        <use transform="matrix(0.05,0,0,0.05,74,0)" xlink:href="#C"/>
        <use transform="matrix(0.05,0,0,0.05,79.95,0)" xlink:href="#D"/>
        <use transform="matrix(0.05,0,0,0.05,88.95,0)" xlink:href="#u"/>
        <use transform="matrix(0.05,0,0,0.05,98.95,0)" xlink:href="#y"/>
        <use transform="matrix(0.05,0,0,0.05,108.95,0)" xlink:href="#v"/>
        <use transform="matrix(0.05,0,0,0.05,112.9,0)" xlink:href="#w"/>
      </g>
      <path fill="#333"
            d="M179-190L93 31C79 59 56 82 12 73V49c39 6 53-20 64-50L1-190h34L92-34l54-156h33"
            id="E"/>
      <path fill="#333"
            d="M115-194c55 1 70 41 70 98S169 2 115 4C84 4 66-9 55-30l1 105H24l-1-265h31l2 30c10-21 28-34 59-34zm-8 174c40 0 45-34 45-75s-6-73-45-74c-42 0-51 32-51 76 0 43 10 73 51 73"
            id="F"/>
      <g id="e">
        <use transform="matrix(0.05,0,0,0.05,0,0)" xlink:href="#w"/>
        <use transform="matrix(0.05,0,0,0.05,10,0)" xlink:href="#r"/>
        <use transform="matrix(0.05,0,0,0.05,20,0)" xlink:href="#s"/>
        <use transform="matrix(0.05,0,0,0.05,25,0)" xlink:href="#r"/>
        <use transform="matrix(0.05,0,0,0.05,35,0)" xlink:href="#y"/>
        <use transform="matrix(0.05,0,0,0.05,45,0)" xlink:href="#z"/>
        <use transform="matrix(0.05,0,0,0.05,54,0)" xlink:href="#A"/>
        <use transform="matrix(0.05,0,0,0.05,64,0)" xlink:href="#B"/>
        <use transform="matrix(0.05,0,0,0.05,74,0)" xlink:href="#C"/>
        <use transform="matrix(0.05,0,0,0.05,79.95,0)" xlink:href="#D"/>
        <use transform="matrix(0.05,0,0,0.05,88.95,0)" xlink:href="#u"/>
        <use transform="matrix(0.05,0,0,0.05,98.95,0)" xlink:href="#y"/>
        <use transform="matrix(0.05,0,0,0.05,108.95,0)" xlink:href="#s"/>
        <use transform="matrix(0.05,0,0,0.05,113.95,0)" xlink:href="#E"/>
        <use transform="matrix(0.05,0,0,0.05,122.95,0)" xlink:href="#F"/>
        <use transform="matrix(0.05,0,0,0.05,132.95,0)" xlink:href="#u"/>
      </g>
      <path fill="#333" d="M33 0v-38h34V0H33" id="G"/>
      <g id="f">
        <use transform="matrix(0.05,0,0,0.05,0,0)" xlink:href="#G"/>
        <use transform="matrix(0.05,0,0,0.05,5,0)" xlink:href="#G"/>
        <use transform="matrix(0.05,0,0,0.05,10,0)" xlink:href="#G"/>
      </g>
      <path fill="#333" d="M63-220v92h138v28H63V0H30v-248h175v28H63" id="H"/>
      <g id="g">
        <use transform="matrix(0.05,0,0,0.05,0,0)" xlink:href="#H"/>
        <use transform="matrix(0.05,0,0,0.05,10.950000000000001,0)"
             xlink:href="#v"/>
        <use transform="matrix(0.05,0,0,0.05,14.9,0)" xlink:href="#u"/>
        <use transform="matrix(0.05,0,0,0.05,24.900000000000002,0)"
             xlink:href="#x"/>
        <use transform="matrix(0.05,0,0,0.05,28.85,0)" xlink:href="#w"/>
      </g>
      <g id="h">
        <use transform="matrix(0.05,0,0,0.05,0,0)" xlink:href="#w"/>
        <use transform="matrix(0.05,0,0,0.05,10,0)" xlink:href="#r"/>
        <use transform="matrix(0.05,0,0,0.05,20,0)" xlink:href="#s"/>
        <use transform="matrix(0.05,0,0,0.05,25,0)" xlink:href="#r"/>
        <use transform="matrix(0.05,0,0,0.05,35,0)" xlink:href="#y"/>
        <use transform="matrix(0.05,0,0,0.05,45,0)" xlink:href="#z"/>
        <use transform="matrix(0.05,0,0,0.05,54,0)" xlink:href="#u"/>
        <use transform="matrix(0.05,0,0,0.05,64,0)" xlink:href="#s"/>
        <use transform="matrix(0.05,0,0,0.05,69,0)" xlink:href="#y"/>
        <use transform="matrix(0.05,0,0,0.05,79,0)" xlink:href="#v"/>
        <use transform="matrix(0.05,0,0,0.05,82.95,0)" xlink:href="#w"/>
      </g>
      <path fill="#333"
            d="M106-169C34-169 62-67 57 0H25v-261h32l-1 103c12-21 28-36 61-36 89 0 53 116 60 194h-32v-121c2-32-8-49-39-48"
            id="I"/>
      <path fill="#333"
            d="M117-194c89-4 53 116 60 194h-32v-121c0-31-8-49-39-48C34-167 62-67 57 0H25l-1-190h30c1 10-1 24 2 32 11-22 29-35 61-36"
            id="J"/>
      <path fill="#333"
            d="M177-190C167-65 218 103 67 71c-23-6-38-20-44-43l32-5c15 47 100 32 89-28v-30C133-14 115 1 83 1 29 1 15-40 15-95c0-56 16-97 71-98 29-1 48 16 59 35 1-10 0-23 2-32h30zM94-22c36 0 50-32 50-73 0-42-14-75-50-75-39 0-46 34-46 75s6 73 46 73"
            id="K"/>
      <g id="i">
        <use transform="matrix(0.05,0,0,0.05,0,0)" xlink:href="#I"/>
        <use transform="matrix(0.05,0,0,0.05,10,0)" xlink:href="#u"/>
        <use transform="matrix(0.05,0,0,0.05,20,0)" xlink:href="#r"/>
        <use transform="matrix(0.05,0,0,0.05,30,0)" xlink:href="#w"/>
        <use transform="matrix(0.05,0,0,0.05,40,0)" xlink:href="#v"/>
        <use transform="matrix(0.05,0,0,0.05,43.95,0)" xlink:href="#J"/>
        <use transform="matrix(0.05,0,0,0.05,53.95,0)" xlink:href="#K"/>
      </g>
      <g id="j">
        <use transform="matrix(0.05,0,0,0.05,0,0)" xlink:href="#q"/>
        <use transform="matrix(0.05,0,0,0.05,12.950000000000001,0)"
             xlink:href="#r"/>
        <use transform="matrix(0.05,0,0,0.05,22.950000000000003,0)"
             xlink:href="#s"/>
        <use transform="matrix(0.05,0,0,0.05,27.950000000000003,0)"
             xlink:href="#r"/>
        <use transform="matrix(0.05,0,0,0.05,37.95,0)" xlink:href="#t"/>
        <use transform="matrix(0.05,0,0,0.05,49.95,0)" xlink:href="#A"/>
        <use transform="matrix(0.05,0,0,0.05,59.95,0)" xlink:href="#B"/>
        <use transform="matrix(0.05,0,0,0.05,69.95,0)" xlink:href="#C"/>
        <use transform="matrix(0.05,0,0,0.05,75.9,0)" xlink:href="#D"/>
        <use transform="matrix(0.05,0,0,0.05,84.9,0)" xlink:href="#u"/>
      </g>
      <g id="k">
        <use transform="matrix(0.05,0,0,0.05,0,0)" xlink:href="#s"/>
        <use transform="matrix(0.05,0,0,0.05,5,0)" xlink:href="#E"/>
        <use transform="matrix(0.05,0,0,0.05,14,0)" xlink:href="#F"/>
        <use transform="matrix(0.05,0,0,0.05,24,0)" xlink:href="#u"/>
      </g>
      <path fill="#a9afb8"
            d="M106-169C34-169 62-67 57 0H25v-261h32l-1 103c12-21 28-36 61-36 89 0 53 116 60 194h-32v-121c2-32-8-49-39-48"
            id="L"/>
      <path fill="#a9afb8"
            d="M141-36C126-15 110 5 73 4 37 3 15-17 15-53c-1-64 63-63 125-63 3-35-9-54-41-54-24 1-41 7-42 31l-33-3c5-37 33-52 76-52 45 0 72 20 72 64v82c-1 20 7 32 28 27v20c-31 9-61-2-59-35zM48-53c0 20 12 33 32 33 41-3 63-29 60-74-43 2-92-5-92 41"
            id="M"/>
      <path fill="#a9afb8"
            d="M135-143c-3-34-86-38-87 0 15 53 115 12 119 90S17 21 10-45l28-5c4 36 97 45 98 0-10-56-113-15-118-90-4-57 82-63 122-42 12 7 21 19 24 35"
            id="N"/>
      <path fill="#a9afb8" d="M-5 72V49h209v23H-5" id="O"/>
      <path fill="#a9afb8"
            d="M210-169c-67 3-38 105-44 169h-31v-121c0-29-5-50-35-48C34-165 62-65 56 0H25l-1-190h30c1 10-1 24 2 32 10-44 99-50 107 0 11-21 27-35 58-36 85-2 47 119 55 194h-31v-121c0-29-5-49-35-48"
            id="P"/>
      <path fill="#a9afb8"
            d="M117-194c89-4 53 116 60 194h-32v-121c0-31-8-49-39-48C34-167 62-67 57 0H25l-1-190h30c1 10-1 24 2 32 11-22 29-35 61-36"
            id="Q"/>
      <path fill="#a9afb8"
            d="M179-190L93 31C79 59 56 82 12 73V49c39 6 53-20 64-50L1-190h34L92-34l54-156h33"
            id="R"/>
      <g id="l">
        <use transform="matrix(0.05,0,0,0.05,0,0)" xlink:href="#L"/>
        <use transform="matrix(0.05,0,0,0.05,10,0)" xlink:href="#M"/>
        <use transform="matrix(0.05,0,0,0.05,20,0)" xlink:href="#N"/>
        <use transform="matrix(0.05,0,0,0.05,29,0)" xlink:href="#O"/>
        <use transform="matrix(0.05,0,0,0.05,39,0)" xlink:href="#P"/>
        <use transform="matrix(0.05,0,0,0.05,53.95,0)" xlink:href="#M"/>
        <use transform="matrix(0.05,0,0,0.05,63.95,0)" xlink:href="#Q"/>
        <use transform="matrix(0.05,0,0,0.05,73.95,0)" xlink:href="#R"/>
      </g>
      <path fill="#a9afb8"
            d="M115-194c53 0 69 39 70 98 0 66-23 100-70 100C84 3 66-7 56-30L54 0H23l1-261h32v101c10-23 28-34 59-34zm-8 174c40 0 45-34 45-75 0-40-5-75-45-74-42 0-51 32-51 76 0 43 10 73 51 73"
            id="S"/>
      <path fill="#a9afb8"
            d="M100-194c63 0 86 42 84 106H49c0 40 14 67 53 68 26 1 43-12 49-29l28 8c-11 28-37 45-77 45C44 4 14-33 15-96c1-61 26-98 85-98zm52 81c6-60-76-77-97-28-3 7-6 17-6 28h103"
            id="T"/>
      <path fill="#a9afb8" d="M24 0v-261h32V0H24" id="U"/>
      <path fill="#a9afb8"
            d="M100-194c62-1 85 37 85 99 1 63-27 99-86 99S16-35 15-95c0-66 28-99 85-99zM99-20c44 1 53-31 53-75 0-43-8-75-51-75s-53 32-53 75 10 74 51 75"
            id="V"/>
      <path fill="#a9afb8"
            d="M177-190C167-65 218 103 67 71c-23-6-38-20-44-43l32-5c15 47 100 32 89-28v-30C133-14 115 1 83 1 29 1 15-40 15-95c0-56 16-97 71-98 29-1 48 16 59 35 1-10 0-23 2-32h30zM94-22c36 0 50-32 50-73 0-42-14-75-50-75-39 0-46 34-46 75s6 73 46 73"
            id="W"/>
      <path fill="#a9afb8"
            d="M59-47c-2 24 18 29 38 22v24C64 9 27 4 27-40v-127H5v-23h24l9-43h21v43h35v23H59v120"
            id="X"/>
      <g id="m">
        <use transform="matrix(0.05,0,0,0.05,0,0)" xlink:href="#S"/>
        <use transform="matrix(0.05,0,0,0.05,10,0)" xlink:href="#T"/>
        <use transform="matrix(0.05,0,0,0.05,20,0)" xlink:href="#U"/>
        <use transform="matrix(0.05,0,0,0.05,23.95,0)" xlink:href="#V"/>
        <use transform="matrix(0.05,0,0,0.05,33.95,0)" xlink:href="#Q"/>
        <use transform="matrix(0.05,0,0,0.05,43.95,0)" xlink:href="#W"/>
        <use transform="matrix(0.05,0,0,0.05,53.95,0)" xlink:href="#N"/>
        <use transform="matrix(0.05,0,0,0.05,62.95,0)" xlink:href="#O"/>
        <use transform="matrix(0.05,0,0,0.05,72.95,0)" xlink:href="#X"/>
        <use transform="matrix(0.05,0,0,0.05,77.95,0)" xlink:href="#V"/>
      </g>
      <g id="n">
        <use transform="matrix(0.05,0,0,0.05,0,0)" xlink:href="#H"/>
        <use transform="matrix(0.05,0,0,0.05,10.950000000000001,0)"
             xlink:href="#v"/>
        <use transform="matrix(0.05,0,0,0.05,14.9,0)" xlink:href="#x"/>
        <use transform="matrix(0.05,0,0,0.05,18.85,0)" xlink:href="#u"/>
      </g>
      <g id="o">
        <use transform="matrix(0.05,0,0,0.05,0,0)" xlink:href="#C"/>
        <use transform="matrix(0.05,0,0,0.05,5.95,0)" xlink:href="#u"/>
        <use transform="matrix(0.05,0,0,0.05,15.949999999999998,0)"
             xlink:href="#D"/>
        <use transform="matrix(0.05,0,0,0.05,24.95,0)" xlink:href="#A"/>
        <use transform="matrix(0.05,0,0,0.05,34.95,0)" xlink:href="#C"/>
        <use transform="matrix(0.05,0,0,0.05,40.900000000000006,0)"
             xlink:href="#w"/>
        <use transform="matrix(0.05,0,0,0.05,50.900000000000006,0)"
             xlink:href="#y"/>
        <use transform="matrix(0.05,0,0,0.05,60.900000000000006,0)"
             xlink:href="#v"/>
        <use transform="matrix(0.05,0,0,0.05,64.85000000000001,0)"
             xlink:href="#w"/>
      </g>
      <path fill="#333"
            d="M210-169c-67 3-38 105-44 169h-31v-121c0-29-5-50-35-48C34-165 62-65 56 0H25l-1-190h30c1 10-1 24 2 32 10-44 99-50 107 0 11-21 27-35 58-36 85-2 47 119 55 194h-31v-121c0-29-5-49-35-48"
            id="Y"/>
      <g id="p">
        <use transform="matrix(0.05,0,0,0.05,0,0)" xlink:href="#J"/>
        <use transform="matrix(0.05,0,0,0.05,10,0)" xlink:href="#r"/>
        <use transform="matrix(0.05,0,0,0.05,20,0)" xlink:href="#Y"/>
        <use transform="matrix(0.05,0,0,0.05,34.95,0)" xlink:href="#u"/>
      </g>
    </defs>
  </g>
</svg>
