<svg xmlns="http://www.w3.org/2000/svg"
     xmlns:xlink="http://www.w3.org/1999/xlink" xmlns:lucid="lucid" width="562"
     height="362">
  <g transform="translate(0 0)" lucid:page-tab-id="lvpqPQFeCub7">
    <path
      d="M181 28a8 8 0 0 1 8-8h184a8 8 0 0 1 8 8v120a8 8 0 0 1-8 8H189a8 8 0 0 1-8-8z"
      fill="#fff"/>
    <path d="M181 92v33h200V92" fill="#e6e6e6"/>
    <path d="M181 60V28a8 8 0 0 1 8-8h184a8 8 0 0 1 8 8v32" fill="#ccc"/>
    <path
      d="M181 28a8 8 0 0 1 8-8h184a8 8 0 0 1 8 8v120a8 8 0 0 1-8 8H189a8 8 0 0 1-8-8zM181 60h200"
      stroke="#333" stroke-width="2" fill="none"/>
    <use xlink:href="#a"
         transform="matrix(1,0,0,1,190.99996009999637,20) translate(57.525 23.6)"/>
    <use xlink:href="#b"
         transform="matrix(1,0,0,1,185.99996009999637,62.5) translate(0 17.1)"/>
    <use xlink:href="#c"
         transform="matrix(1,0,0,1,185.99996009999637,94.5) translate(0 17.1)"/>
    <use xlink:href="#d"
         transform="matrix(1,0,0,1,185.99996009999637,126.5) translate(0 17.1)"/>
    <path
      d="M301 188a8 8 0 0 1 8-8h184a8 8 0 0 1 8 8v152a8 8 0 0 1-8 8H309a8 8 0 0 1-8-8z"
      fill="#fff"/>
    <path d="M301 252v33h200v-33M301 316v24a8 8 0 0 0 8 8h184a8 8 0 0 0 8-8v-24"
          fill="#e6e6e6"/>
    <path d="M301 220v-32a8 8 0 0 1 8-8h184a8 8 0 0 1 8 8v32" fill="#ccc"/>
    <path
      d="M301 188a8 8 0 0 1 8-8h184a8 8 0 0 1 8 8v152a8 8 0 0 1-8 8H309a8 8 0 0 1-8-8zM301 220h200"
      stroke="#333" stroke-width="2" fill="none"/>
    <use xlink:href="#e"
         transform="matrix(1,0,0,1,310.9999600999964,180) translate(70.575 23.6)"/>
    <use xlink:href="#b"
         transform="matrix(1,0,0,1,305.9999600999964,222.5) translate(0 17.1)"/>
    <use xlink:href="#f"
         transform="matrix(1,0,0,1,305.9999600999964,254.5) translate(0 17.1)"/>
    <use xlink:href="#g"
         transform="matrix(1,0,0,1,305.9999600999964,286.5) translate(0 17.1)"/>
    <use xlink:href="#d"
         transform="matrix(1,0,0,1,305.9999600999964,318.5) translate(0 17.1)"/>
    <path
      d="M61 188a8 8 0 0 1 8-8h184a8 8 0 0 1 8 8v152a8 8 0 0 1-8 8H69a8 8 0 0 1-8-8z"
      fill="#fff"/>
    <path d="M61 252v33h200v-33M61 316v24a8 8 0 0 0 8 8h184a8 8 0 0 0 8-8v-24"
          fill="#e6e6e6"/>
    <path d="M61 220v-32a8 8 0 0 1 8-8h184a8 8 0 0 1 8 8v32" fill="#ccc"/>
    <path
      d="M61 188a8 8 0 0 1 8-8h184a8 8 0 0 1 8 8v152a8 8 0 0 1-8 8H69a8 8 0 0 1-8-8zM61 220h200"
      stroke="#333" stroke-width="2" fill="none"/>
    <use xlink:href="#h"
         transform="matrix(1,0,0,1,70.99996009999637,180) translate(75.575 23.6)"/>
    <use xlink:href="#b"
         transform="matrix(1,0,0,1,65.99996009999637,222.5) translate(0 17.1)"/>
    <use xlink:href="#i"
         transform="matrix(1,0,0,1,65.99996009999637,254.5) translate(0 17.1)"/>
    <use xlink:href="#j"
         transform="matrix(1,0,0,1,65.99996009999637,286.5) translate(0 17.1)"/>
    <use xlink:href="#d"
         transform="matrix(1,0,0,1,65.99996009999637,318.5) translate(0 17.1)"/>
    <path
      d="M532.03 75.04l2 .47 1.87.8 1.74 1.06 1.55 1.33 1.32 1.54 1.07 1.74.77 1.88.47 2 .16 1.98v168.24l-.16 2-.47 1.98-.78 1.88-1.08 1.74-1.33 1.56-1.56 1.32-1.74 1.07-1.88.78-2 .48-1.98.16H522v-2h7.96l1.76-.14 1.68-.4 1.6-.66 1.46-.9 1.32-1.12 1.12-1.32.9-1.47.66-1.6.4-1.67.14-1.76V87.92l-.14-1.76-.4-1.68-.66-1.6-.9-1.46-1.12-1.32-1.32-1.12-1.47-.9-1.6-.66-1.68-.4-1.76-.14h-.34v-2h.42zM402 76.88v-2h44.67v2z"
      stroke="#a9afb8" stroke-width=".05" fill="#a9afb8"/>
    <path fill="#fff"/>
    <path d="M393 85.88h-2v-20h2z" stroke="#a9afb8" stroke-width=".05"
          fill="#a9afb8"/>
    <path fill="#fff"/>
    <path d="M402 76.88h-20v-2h20z" stroke="#a9afb8" stroke-width=".05"
          fill="#a9afb8"/>
    <path fill="#fff"/>
    <path d="M403 85.88h-2v-20h2z" stroke="#a9afb8" stroke-width=".05"
          fill="#a9afb8"/>
    <path d="M502.45 258.04l20 10-20 10" fill="#fff" fill-opacity="0"/>
    <path d="M524.68 268.04l-21.8 10.9-.88-1.8 18.2-9.1-18.2-9.1.9-1.8z"
          stroke="#a9afb8" stroke-width=".05" fill="#a9afb8"/>
    <path fill="#fff"/>
    <path d="M522.45 269.04h-20v-2h20z" stroke="#a9afb8" stroke-width=".05"
          fill="#a9afb8"/>
    <path fill="#fff"/>
    <path d="M523.45 278.04h-2v-20h2z" stroke="#a9afb8" stroke-width=".05"
          fill="#a9afb8"/>
    <use xlink:href="#k"
         transform="matrix(1,0,0,1,446.66668584402726,65.08000721199924) translate(0.005000000000002558 14.4)"/>
    <path
      d="M37.68 76.88h-5.64l-1.76.14-1.68.4-1.6.66-1.46.9-1.32 1.12-1.12 1.32-.9 1.47-.66 1.58-.4 1.68-.14 1.76V256l.14 1.76.4 1.68.66 1.6.9 1.46 1.12 1.32 1.32 1.12 1.47.9 1.6.66 1.68.4 1.76.14H40v2h-8.04l-2-.16-1.98-.47-1.88-.77-1.74-1.07-1.55-1.32-1.32-1.56-1.07-1.74-.77-1.88-.47-2-.16-1.98V87.84l.16-2 .47-1.98.78-1.88 1.08-1.74 1.32-1.55 1.56-1.34 1.74-1.07 1.88-.8 2-.46 1.98-.16h5.72zm122.32 0h-39.37v-2H160z"
      stroke="#a9afb8" stroke-width=".05" fill="#a9afb8"/>
    <path fill="#fff"/>
    <path d="M171 85.88h-2v-20h2z" stroke="#a9afb8" stroke-width=".05"
          fill="#a9afb8"/>
    <path fill="#fff"/>
    <path d="M180 76.88h-20v-2h20z" stroke="#a9afb8" stroke-width=".05"
          fill="#a9afb8"/>
    <path fill="#fff"/>
    <path d="M161 85.88h-2v-20h2z" stroke="#a9afb8" stroke-width=".05"
          fill="#a9afb8"/>
    <path d="M59.55 278.04l-20-10 20-10" fill="#fff" fill-opacity="0"/>
    <path d="M60 258.93l-18.2 9.1 18.2 9.12-.9 1.78-21.78-10.9 21.8-10.88z"
          stroke="#a9afb8" stroke-width=".05" fill="#a9afb8"/>
    <path fill="#fff"/>
    <path d="M59.55 269.04h-20v-2h20z" stroke="#a9afb8" stroke-width=".05"
          fill="#a9afb8"/>
    <path fill="#fff"/>
    <path d="M40.55 278.04h-2v-20h2z" stroke="#a9afb8" stroke-width=".05"
          fill="#a9afb8"/>
    <use xlink:href="#k"
         transform="matrix(1,0,0,1,37.67790115525254,65.08000478800044) translate(0.005000000000002558 14.4)"/>
    <defs>
      <path fill="#333"
            d="M30-248c118-7 216 8 213 122C240-48 200 0 122 0H30v-248zM63-27c89 8 146-16 146-99s-60-101-146-95v194"
            id="l"/>
      <path fill="#333"
            d="M141-36C126-15 110 5 73 4 37 3 15-17 15-53c-1-64 63-63 125-63 3-35-9-54-41-54-24 1-41 7-42 31l-33-3c5-37 33-52 76-52 45 0 72 20 72 64v82c-1 20 7 32 28 27v20c-31 9-61-2-59-35zM48-53c0 20 12 33 32 33 41-3 63-29 60-74-43 2-92-5-92 41"
            id="m"/>
      <path fill="#333"
            d="M59-47c-2 24 18 29 38 22v24C64 9 27 4 27-40v-127H5v-23h24l9-43h21v43h35v23H59v120"
            id="n"/>
      <path fill="#333"
            d="M185-189c-5-48-123-54-124 2 14 75 158 14 163 119 3 78-121 87-175 55-17-10-28-26-33-46l33-7c5 56 141 63 141-1 0-78-155-14-162-118-5-82 145-84 179-34 5 7 8 16 11 25"
            id="o"/>
      <path fill="#333"
            d="M100-194c63 0 86 42 84 106H49c0 40 14 67 53 68 26 1 43-12 49-29l28 8c-11 28-37 45-77 45C44 4 14-33 15-96c1-61 26-98 85-98zm52 81c6-60-76-77-97-28-3 7-6 17-6 28h103"
            id="p"/>
      <g id="a">
        <use transform="matrix(0.05,0,0,0.05,0,0)" xlink:href="#l"/>
        <use transform="matrix(0.05,0,0,0.05,12.950000000000001,0)"
             xlink:href="#m"/>
        <use transform="matrix(0.05,0,0,0.05,22.950000000000003,0)"
             xlink:href="#n"/>
        <use transform="matrix(0.05,0,0,0.05,27.950000000000003,0)"
             xlink:href="#m"/>
        <use transform="matrix(0.05,0,0,0.05,37.95,0)" xlink:href="#o"/>
        <use transform="matrix(0.05,0,0,0.05,49.95,0)" xlink:href="#p"/>
        <use transform="matrix(0.05,0,0,0.05,59.95,0)" xlink:href="#n"/>
      </g>
      <path fill="#333" d="M24-231v-30h32v30H24zM24 0v-190h32V0H24" id="q"/>
      <path fill="#333"
            d="M85-194c31 0 48 13 60 33l-1-100h32l1 261h-30c-2-10 0-23-3-31C134-8 116 4 85 4 32 4 16-35 15-94c0-66 23-100 70-100zm9 24c-40 0-46 34-46 75 0 40 6 74 45 74 42 0 51-32 51-76 0-42-9-74-50-73"
            id="r"/>
      <g id="b">
        <use transform="matrix(0.05,0,0,0.05,0,0)" xlink:href="#q"/>
        <use transform="matrix(0.05,0,0,0.05,3.95,0)" xlink:href="#r"/>
      </g>
      <path fill="#333" d="M24 0v-261h32V0H24" id="s"/>
      <g id="c">
        <use transform="matrix(0.05,0,0,0.05,0,0)" xlink:href="#n"/>
        <use transform="matrix(0.05,0,0,0.05,5,0)" xlink:href="#q"/>
        <use transform="matrix(0.05,0,0,0.05,8.95,0)" xlink:href="#n"/>
        <use transform="matrix(0.05,0,0,0.05,13.949999999999998,0)"
             xlink:href="#s"/>
        <use transform="matrix(0.05,0,0,0.05,17.9,0)" xlink:href="#p"/>
      </g>
      <path fill="#333" d="M33 0v-38h34V0H33" id="t"/>
      <g id="d">
        <use transform="matrix(0.05,0,0,0.05,0,0)" xlink:href="#t"/>
        <use transform="matrix(0.05,0,0,0.05,5,0)" xlink:href="#t"/>
        <use transform="matrix(0.05,0,0,0.05,10,0)" xlink:href="#t"/>
      </g>
      <path fill="#333" d="M63-220v92h138v28H63V0H30v-248h175v28H63" id="u"/>
      <g id="e">
        <use transform="matrix(0.05,0,0,0.05,0,0)" xlink:href="#u"/>
        <use transform="matrix(0.05,0,0,0.05,10.950000000000001,0)"
             xlink:href="#q"/>
        <use transform="matrix(0.05,0,0,0.05,14.9,0)" xlink:href="#p"/>
        <use transform="matrix(0.05,0,0,0.05,24.900000000000002,0)"
             xlink:href="#s"/>
        <use transform="matrix(0.05,0,0,0.05,28.85,0)" xlink:href="#r"/>
      </g>
      <path fill="#333" d="M-5 72V49h209v23H-5" id="v"/>
      <path fill="#333"
            d="M135-143c-3-34-86-38-87 0 15 53 115 12 119 90S17 21 10-45l28-5c4 36 97 45 98 0-10-56-113-15-118-90-4-57 82-63 122-42 12 7 21 19 24 35"
            id="w"/>
      <g id="f">
        <use transform="matrix(0.05,0,0,0.05,0,0)" xlink:href="#r"/>
        <use transform="matrix(0.05,0,0,0.05,10,0)" xlink:href="#m"/>
        <use transform="matrix(0.05,0,0,0.05,20,0)" xlink:href="#n"/>
        <use transform="matrix(0.05,0,0,0.05,25,0)" xlink:href="#m"/>
        <use transform="matrix(0.05,0,0,0.05,35,0)" xlink:href="#v"/>
        <use transform="matrix(0.05,0,0,0.05,45,0)" xlink:href="#w"/>
        <use transform="matrix(0.05,0,0,0.05,54,0)" xlink:href="#p"/>
        <use transform="matrix(0.05,0,0,0.05,64,0)" xlink:href="#n"/>
        <use transform="matrix(0.05,0,0,0.05,69,0)" xlink:href="#v"/>
        <use transform="matrix(0.05,0,0,0.05,79,0)" xlink:href="#q"/>
        <use transform="matrix(0.05,0,0,0.05,82.95,0)" xlink:href="#r"/>
      </g>
      <path fill="#333"
            d="M106-169C34-169 62-67 57 0H25v-261h32l-1 103c12-21 28-36 61-36 89 0 53 116 60 194h-32v-121c2-32-8-49-39-48"
            id="x"/>
      <path fill="#333"
            d="M117-194c89-4 53 116 60 194h-32v-121c0-31-8-49-39-48C34-167 62-67 57 0H25l-1-190h30c1 10-1 24 2 32 11-22 29-35 61-36"
            id="y"/>
      <path fill="#333"
            d="M177-190C167-65 218 103 67 71c-23-6-38-20-44-43l32-5c15 47 100 32 89-28v-30C133-14 115 1 83 1 29 1 15-40 15-95c0-56 16-97 71-98 29-1 48 16 59 35 1-10 0-23 2-32h30zM94-22c36 0 50-32 50-73 0-42-14-75-50-75-39 0-46 34-46 75s6 73 46 73"
            id="z"/>
      <g id="g">
        <use transform="matrix(0.05,0,0,0.05,0,0)" xlink:href="#x"/>
        <use transform="matrix(0.05,0,0,0.05,10,0)" xlink:href="#p"/>
        <use transform="matrix(0.05,0,0,0.05,20,0)" xlink:href="#m"/>
        <use transform="matrix(0.05,0,0,0.05,30,0)" xlink:href="#r"/>
        <use transform="matrix(0.05,0,0,0.05,40,0)" xlink:href="#q"/>
        <use transform="matrix(0.05,0,0,0.05,43.95,0)" xlink:href="#y"/>
        <use transform="matrix(0.05,0,0,0.05,53.95,0)" xlink:href="#z"/>
      </g>
      <g id="h">
        <use transform="matrix(0.05,0,0,0.05,0,0)" xlink:href="#u"/>
        <use transform="matrix(0.05,0,0,0.05,10.950000000000001,0)"
             xlink:href="#q"/>
        <use transform="matrix(0.05,0,0,0.05,14.9,0)" xlink:href="#s"/>
        <use transform="matrix(0.05,0,0,0.05,18.85,0)" xlink:href="#p"/>
      </g>
      <path fill="#333"
            d="M114-163C36-179 61-72 57 0H25l-1-190h30c1 12-1 29 2 39 6-27 23-49 58-41v29"
            id="A"/>
      <path fill="#333"
            d="M96-169c-40 0-48 33-48 73s9 75 48 75c24 0 41-14 43-38l32 2c-6 37-31 61-74 61-59 0-76-41-82-99-10-93 101-131 147-64 4 7 5 14 7 22l-32 3c-4-21-16-35-41-35"
            id="B"/>
      <path fill="#333"
            d="M100-194c62-1 85 37 85 99 1 63-27 99-86 99S16-35 15-95c0-66 28-99 85-99zM99-20c44 1 53-31 53-75 0-43-8-75-51-75s-53 32-53 75 10 74 51 75"
            id="C"/>
      <g id="i">
        <use transform="matrix(0.05,0,0,0.05,0,0)" xlink:href="#A"/>
        <use transform="matrix(0.05,0,0,0.05,5.95,0)" xlink:href="#p"/>
        <use transform="matrix(0.05,0,0,0.05,15.949999999999998,0)"
             xlink:href="#B"/>
        <use transform="matrix(0.05,0,0,0.05,24.95,0)" xlink:href="#C"/>
        <use transform="matrix(0.05,0,0,0.05,34.95,0)" xlink:href="#A"/>
        <use transform="matrix(0.05,0,0,0.05,40.900000000000006,0)"
             xlink:href="#r"/>
        <use transform="matrix(0.05,0,0,0.05,50.900000000000006,0)"
             xlink:href="#v"/>
        <use transform="matrix(0.05,0,0,0.05,60.900000000000006,0)"
             xlink:href="#q"/>
        <use transform="matrix(0.05,0,0,0.05,64.85000000000001,0)"
             xlink:href="#r"/>
      </g>
      <path fill="#333"
            d="M210-169c-67 3-38 105-44 169h-31v-121c0-29-5-50-35-48C34-165 62-65 56 0H25l-1-190h30c1 10-1 24 2 32 10-44 99-50 107 0 11-21 27-35 58-36 85-2 47 119 55 194h-31v-121c0-29-5-49-35-48"
            id="D"/>
      <g id="j">
        <use transform="matrix(0.05,0,0,0.05,0,0)" xlink:href="#y"/>
        <use transform="matrix(0.05,0,0,0.05,10,0)" xlink:href="#m"/>
        <use transform="matrix(0.05,0,0,0.05,20,0)" xlink:href="#D"/>
        <use transform="matrix(0.05,0,0,0.05,34.95,0)" xlink:href="#p"/>
      </g>
      <path fill="#a9afb8"
            d="M106-169C34-169 62-67 57 0H25v-261h32l-1 103c12-21 28-36 61-36 89 0 53 116 60 194h-32v-121c2-32-8-49-39-48"
            id="E"/>
      <path fill="#a9afb8"
            d="M141-36C126-15 110 5 73 4 37 3 15-17 15-53c-1-64 63-63 125-63 3-35-9-54-41-54-24 1-41 7-42 31l-33-3c5-37 33-52 76-52 45 0 72 20 72 64v82c-1 20 7 32 28 27v20c-31 9-61-2-59-35zM48-53c0 20 12 33 32 33 41-3 63-29 60-74-43 2-92-5-92 41"
            id="F"/>
      <path fill="#a9afb8"
            d="M135-143c-3-34-86-38-87 0 15 53 115 12 119 90S17 21 10-45l28-5c4 36 97 45 98 0-10-56-113-15-118-90-4-57 82-63 122-42 12 7 21 19 24 35"
            id="G"/>
      <path fill="#a9afb8" d="M-5 72V49h209v23H-5" id="H"/>
      <path fill="#a9afb8"
            d="M210-169c-67 3-38 105-44 169h-31v-121c0-29-5-50-35-48C34-165 62-65 56 0H25l-1-190h30c1 10-1 24 2 32 10-44 99-50 107 0 11-21 27-35 58-36 85-2 47 119 55 194h-31v-121c0-29-5-49-35-48"
            id="I"/>
      <path fill="#a9afb8"
            d="M117-194c89-4 53 116 60 194h-32v-121c0-31-8-49-39-48C34-167 62-67 57 0H25l-1-190h30c1 10-1 24 2 32 11-22 29-35 61-36"
            id="J"/>
      <path fill="#a9afb8"
            d="M179-190L93 31C79 59 56 82 12 73V49c39 6 53-20 64-50L1-190h34L92-34l54-156h33"
            id="K"/>
      <g id="k">
        <use transform="matrix(0.05,0,0,0.05,0,0)" xlink:href="#E"/>
        <use transform="matrix(0.05,0,0,0.05,10,0)" xlink:href="#F"/>
        <use transform="matrix(0.05,0,0,0.05,20,0)" xlink:href="#G"/>
        <use transform="matrix(0.05,0,0,0.05,29,0)" xlink:href="#H"/>
        <use transform="matrix(0.05,0,0,0.05,39,0)" xlink:href="#I"/>
        <use transform="matrix(0.05,0,0,0.05,53.95,0)" xlink:href="#F"/>
        <use transform="matrix(0.05,0,0,0.05,63.95,0)" xlink:href="#J"/>
        <use transform="matrix(0.05,0,0,0.05,73.95,0)" xlink:href="#K"/>
      </g>
    </defs>
  </g>
</svg>
