<?xml version="1.0" encoding="UTF-8" standalone="no"?>
<svg
   width="806"
   height="339"
   version="1.1"
   id="svg111"
   sodipodi:docname="aws-networking.svg"
   xml:space="preserve"
   inkscape:version="1.2.2 (b0a8486, 2022-12-01)"
   xmlns:inkscape="http://www.inkscape.org/namespaces/inkscape"
   xmlns:sodipodi="http://sodipodi.sourceforge.net/DTD/sodipodi-0.dtd"
   xmlns:xlink="http://www.w3.org/1999/xlink"
   xmlns="http://www.w3.org/2000/svg"
   xmlns:svg="http://www.w3.org/2000/svg"><defs
     id="defs115"><defs
       id="defs107"><linearGradient
         gradientUnits="userSpaceOnUse"
         id="a"
         x1="1258.87"
         y1="260"
         x2="1378.87"
         y2="140"><stop
           offset="0%"
           stop-color="#4d27a8"
           id="stop16" /><stop
           offset="100%"
           stop-color="#a166ff"
           id="stop18" /></linearGradient><path
         d="m 212,-179 c -10,-28 -35,-45 -73,-45 -59,0 -87,40 -87,99 0,60 29,101 89,101 43,0 62,-24 78,-52 l 27,14 C 228,-24 195,4 139,4 59,4 22,-46 18,-125 c -6,-104 99,-153 187,-111 19,9 31,26 39,46"
         id="f" /><path
         d="M 141,-36 C 126,-15 110,5 73,4 37,3 15,-17 15,-53 c -1,-64 63,-63 125,-63 3,-35 -9,-54 -41,-54 -24,1 -41,7 -42,31 l -33,-3 c 5,-37 33,-52 76,-52 45,0 72,20 72,64 v 82 c -1,20 7,32 28,27 V -1 C 169,8 139,-3 141,-36 Z M 48,-53 c 0,20 12,33 32,33 41,-3 63,-29 60,-74 -43,2 -92,-5 -92,41"
         id="g" /><path
         d="m 59,-47 c -2,24 18,29 38,22 V -1 C 64,9 27,4 27,-40 V -167 H 5 v -23 h 24 l 9,-43 h 21 v 43 h 35 v 23 H 59 v 120"
         id="h" /><path
         d="m 100,-194 c 63,0 86,42 84,106 H 49 c 0,40 14,67 53,68 26,1 43,-12 49,-29 l 28,8 C 168,-13 142,4 102,4 44,4 14,-33 15,-96 c 1,-61 26,-98 85,-98 z m 52,81 c 6,-60 -76,-77 -97,-28 -3,7 -6,17 -6,28 h 103"
         id="i" /><path
         d="M 177,-190 C 167,-65 218,103 67,71 44,65 29,51 23,28 L 55,23 C 70,70 155,55 144,-5 V -35 C 133,-14 115,1 83,1 29,1 15,-40 15,-95 c 0,-56 16,-97 71,-98 29,-1 48,16 59,35 1,-10 0,-23 2,-32 z M 94,-22 c 36,0 50,-32 50,-73 0,-42 -14,-75 -50,-75 -39,0 -46,34 -46,75 0,41 6,73 46,73"
         id="j" /><path
         d="m 100,-194 c 62,-1 85,37 85,99 1,63 -27,99 -86,99 -59,0 -83,-39 -84,-99 0,-66 28,-99 85,-99 z m -1,174 c 44,1 53,-31 53,-75 0,-43 -8,-75 -51,-75 -43,0 -53,32 -53,75 0,43 10,74 51,75"
         id="k" /><path
         d="M 114,-163 C 36,-179 61,-72 57,0 H 25 l -1,-190 h 30 c 1,12 -1,29 2,39 6,-27 23,-49 58,-41 v 29"
         id="l" /><path
         d="M 179,-190 93,31 C 79,59 56,82 12,73 V 49 C 51,55 65,29 76,-1 L 1,-190 h 34 l 57,156 54,-156 h 33"
         id="m" /><g
         id="b"><use
           transform="scale(0.05)"
           xlink:href="#f"
           id="use29" /><use
           transform="matrix(0.05,0,0,0.05,12.95,0)"
           xlink:href="#g"
           id="use31" /><use
           transform="matrix(0.05,0,0,0.05,22.95,0)"
           xlink:href="#h"
           id="use33" /><use
           transform="matrix(0.05,0,0,0.05,27.95,0)"
           xlink:href="#i"
           id="use35" /><use
           transform="matrix(0.05,0,0,0.05,37.95,0)"
           xlink:href="#j"
           id="use37" /><use
           transform="matrix(0.05,0,0,0.05,47.95,0)"
           xlink:href="#k"
           id="use39" /><use
           transform="matrix(0.05,0,0,0.05,57.95,0)"
           xlink:href="#l"
           id="use41" /><use
           transform="matrix(0.05,0,0,0.05,63.9,0)"
           xlink:href="#m"
           id="use43" /></g><path
         d="M 190,0 58,-211 59,0 H 30 v -248 h 39 l 133,213 -2,-213 h 31 V 0 h -41"
         id="n" /><path
         d="M 206,0 H 170 L 130,-164 89,0 H 53 L -1,-190 h 32 l 39,164 43,-164 h 34 l 41,164 42,-164 h 31"
         id="o" /><path
         d="M 143,0 79,-87 56,-68 V 0 H 24 v -261 h 32 v 163 l 83,-92 h 37 l -77,82 82,108 h -38"
         id="p" /><path
         d="m 24,-231 v -30 h 32 v 30 z M 24,0 V -190 H 56 V 0 H 24"
         id="q" /><path
         d="m 117,-194 c 89,-4 53,116 60,194 h -32 v -121 c 0,-31 -8,-49 -39,-48 C 34,-167 62,-67 57,0 H 25 l -1,-190 h 30 c 1,10 -1,24 2,32 11,-22 29,-35 61,-36"
         id="r" /><g
         id="c"><use
           transform="scale(0.05)"
           xlink:href="#n"
           id="use51" /><use
           transform="matrix(0.05,0,0,0.05,12.95,0)"
           xlink:href="#i"
           id="use53" /><use
           transform="matrix(0.05,0,0,0.05,22.95,0)"
           xlink:href="#h"
           id="use55" /><use
           transform="matrix(0.05,0,0,0.05,27.95,0)"
           xlink:href="#o"
           id="use57" /><use
           transform="matrix(0.05,0,0,0.05,40.9,0)"
           xlink:href="#k"
           id="use59" /><use
           transform="matrix(0.05,0,0,0.05,50.9,0)"
           xlink:href="#l"
           id="use61" /><use
           transform="matrix(0.05,0,0,0.05,56.85,0)"
           xlink:href="#p"
           id="use63" /><use
           transform="matrix(0.05,0,0,0.05,65.85,0)"
           xlink:href="#q"
           id="use65" /><use
           transform="matrix(0.05,0,0,0.05,69.8,0)"
           xlink:href="#r"
           id="use67" /><use
           transform="matrix(0.05,0,0,0.05,79.8,0)"
           xlink:href="#j"
           id="use69" /></g><g
         id="d"><use
           transform="scale(0.05)"
           xlink:href="#f"
           id="use72" /><use
           transform="matrix(0.05,0,0,0.05,12.95,0)"
           xlink:href="#k"
           id="use74" /><use
           transform="matrix(0.05,0,0,0.05,22.95,0)"
           xlink:href="#r"
           id="use76" /><use
           transform="matrix(0.05,0,0,0.05,32.95,0)"
           xlink:href="#h"
           id="use78" /><use
           transform="matrix(0.05,0,0,0.05,37.95,0)"
           xlink:href="#i"
           id="use80" /><use
           transform="matrix(0.05,0,0,0.05,47.95,0)"
           xlink:href="#r"
           id="use82" /><use
           transform="matrix(0.05,0,0,0.05,57.95,0)"
           xlink:href="#h"
           id="use84" /></g><path
         d="m 30,-248 c 118,-7 216,8 213,122 C 240,-48 200,0 122,0 H 30 Z m 33,221 c 89,8 146,-16 146,-99 0,-83 -60,-101 -146,-95 v 194"
         id="s" /><path
         d="M 24,0 V -261 H 56 V 0 H 24"
         id="t" /><path
         d="M 108,0 H 70 L 1,-190 h 34 l 54,165 56,-165 h 34"
         id="u" /><g
         id="e"><use
           transform="scale(0.05)"
           xlink:href="#s"
           id="use90" /><use
           transform="matrix(0.05,0,0,0.05,12.95,0)"
           xlink:href="#i"
           id="use92" /><use
           transform="matrix(0.05,0,0,0.05,22.95,0)"
           xlink:href="#t"
           id="use94" /><use
           transform="matrix(0.05,0,0,0.05,26.9,0)"
           xlink:href="#q"
           id="use96" /><use
           transform="matrix(0.05,0,0,0.05,30.85,0)"
           xlink:href="#u"
           id="use98" /><use
           transform="matrix(0.05,0,0,0.05,39.85,0)"
           xlink:href="#i"
           id="use100" /><use
           transform="matrix(0.05,0,0,0.05,49.85,0)"
           xlink:href="#l"
           id="use102" /><use
           transform="matrix(0.05,0,0,0.05,55.8,0)"
           xlink:href="#m"
           id="use104" /></g></defs></defs><sodipodi:namedview
     id="namedview113"
     pagecolor="#ffffff"
     bordercolor="#000000"
     borderopacity="0.25"
     inkscape:showpageshadow="2"
     inkscape:pageopacity="0.0"
     inkscape:pagecheckerboard="0"
     inkscape:deskcolor="#d1d1d1"
     showgrid="false"
     inkscape:zoom="0.57596925"
     inkscape:cx="356.78988"
     inkscape:cy="143.23681"
     inkscape:window-width="1792"
     inkscape:window-height="1039"
     inkscape:window-x="0"
     inkscape:window-y="25"
     inkscape:window-maximized="1"
     inkscape:current-layer="svg111" /><g
     id="g15036"
     transform="matrix(11.545082,0,0,11.545082,-161.30866,-258.50337)"><polygon
       points="27.09,35.764 25.984,40.34 28.182,40.34 27.115,35.764 "
       fill="#f7981f"
       id="polygon15015" /><path
       d="m 16.302,40.744 v 0.666 c 0,3.311 3.579,6.66 7.991,6.66 h 23.533 c 4.412,0 7.991,-3.35 7.991,-6.66 v -0.666 c 0,-3.078 -3.098,-6.943 -7.081,-7.283 -0.089,-2.752 -2.342,-4.955 -5.113,-4.955 -1.076,0 -2.074,0.334 -2.898,0.9 -1.58,-3.52 -5.107,-5.977 -9.216,-5.977 -5.579,0 -10.101,4.521 -10.101,10.102 0,0.1 0.012,0.195 0.015,0.293 -2.993,0.867 -5.121,4.371 -5.121,6.92 z m 12.699,3.055 -0.572,-2.275 h -2.717 l -0.599,2.275 h -1.547 l 2.639,-9.283 h 1.898 l 2.444,9.283 z m 9.012,0 h -1.716 l -1.196,-6.994 h -0.026 l -1.183,6.994 h -1.716 l -1.795,-9.283 h 1.496 l 1.221,7.215 h 0.027 l 1.221,-7.215 h 1.561 l 1.248,7.254 h 0.026 l 1.209,-7.254 h 1.469 z m 5.433,0.181 c -2.301,0 -2.821,-1.533 -2.821,-2.834 v -0.221 h 1.482 v 0.234 c 0,1.131 0.494,1.703 1.521,1.703 0.936,0 1.403,-0.664 1.403,-1.354 0,-0.975 -0.493,-1.404 -1.325,-1.65 l -1.015,-0.352 c -1.353,-0.52 -1.937,-1.221 -1.937,-2.547 0,-1.691 1.144,-2.627 2.886,-2.627 2.379,0 2.626,1.482 2.626,2.443 v 0.209 h -1.482 v -0.195 c 0,-0.846 -0.377,-1.34 -1.3,-1.34 -0.637,0 -1.248,0.352 -1.248,1.34 0,0.793 0.403,1.195 1.392,1.572 l 1,0.365 c 1.313,0.467 1.886,1.184 1.886,2.457 10e-4,1.979 -1.196,2.797 -3.068,2.797 z"
       fill="#f7981f"
       id="path15017" /><path
       d="m 26.205,34.516 -2.639,9.283 h 1.547 l 0.599,-2.275 h 2.717 l 0.572,2.275 h 1.547 l -2.444,-9.283 z m -0.221,5.824 1.105,-4.576 h 0.025 l 1.066,4.576 z"
       fill="#ffffff"
       id="path15019" /><polygon
       points="33.125,41.73 33.098,41.73 31.877,34.516 30.381,34.516 32.176,43.799 33.892,43.799 35.074,36.805 35.101,36.805 36.297,43.799 38.013,43.799 39.858,34.516 38.39,34.516 37.181,41.77 37.154,41.77 35.906,34.516 34.346,34.516 "
       fill="#ffffff"
       id="polygon15021" /><path
       d="m 44.629,38.729 -1,-0.365 c -0.988,-0.377 -1.392,-0.779 -1.392,-1.572 0,-0.988 0.611,-1.34 1.248,-1.34 0.923,0 1.3,0.494 1.3,1.34 v 0.195 h 1.482 v -0.209 c 0,-0.961 -0.247,-2.443 -2.626,-2.443 -1.742,0 -2.886,0.936 -2.886,2.627 0,1.326 0.584,2.027 1.937,2.547 l 1.015,0.352 c 0.832,0.246 1.325,0.676 1.325,1.65 0,0.689 -0.468,1.354 -1.403,1.354 -1.027,0 -1.521,-0.572 -1.521,-1.703 v -0.234 h -1.482 v 0.221 c 0,1.301 0.521,2.834 2.821,2.834 1.872,0 3.068,-0.818 3.068,-2.795 0,-1.276 -0.573,-1.993 -1.886,-2.459 z"
       fill="#ffffff"
       id="path15023" /></g><path
     d="m 556.70978,185.73211 c 25.18422,2.25789 38.64475,18.58422 38.64475,34.30265 0,20.84211 -12.50526,33.86843 -33.66579,33.86843 h -44.46318 l 24.8079,21.27633 c 3.09737,-1.65 6.36842,-2.46053 9.84211,-2.46053 11.72369,0 21.13159,9.26317 21.13159,21.0737 0,11.57895 -9.4079,21.07369 -21.13159,21.07369 -11.57895,0 -20.98685,-9.49474 -20.98685,-21.07369 0,-4.74737 1.53421,-8.88685 4.05263,-12.38948 l -32.33423,-28.07896 v 38.6158 c 9.43685,2.25789 16.55791,10.53685 16.55791,20.66844 0,11.57894 -9.61053,21.07369 -21.13159,21.07369 -11.78158,0 -21.18948,-9.49475 -21.18948,-21.07369 0,-10.13159 7.12105,-18.41055 16.50001,-20.66844 v -38.58686 l -32.27634,28.07896 c 2.48947,3.47369 4.05264,7.64212 4.05264,12.38949 0,11.57894 -9.4658,21.07369 -21.18949,21.07369 -11.57895,0 -20.98685,-9.49475 -20.98685,-21.07369 0,-11.78159 9.43684,-21.0737 20.98685,-21.0737 3.64737,0 6.94737,0.81053 9.84212,2.46053 l 24.98158,-21.27633 h -39.25265 c -20.55264,0 -36.56054,-16.50001 -36.56054,-37.19738 0,-0.20264 0.37632,-33.86844 37.34213,-36.38687 2.31579,-52.68423 46.54738,-53.32107 46.95265,-53.32107 21.5079,0 35.3737,9.26316 41.68423,27.50001 5.78947,-1.0421 11.78158,0.81053 16.78948,5.15264 6.71579,5.58684 11.92632,15.92105 11,26.05264 z m 4.97896,58.70528 c 15.57368,0 24.22895,-8.88684 24.22895,-24.40263 0,-12.2158 -12.1579,-25.24212 -34.85265,-25.24212 -1.5342,0 -3.09737,-0.63684 -3.84999,-1.85263 -0.95528,-1.24474 -1.1579,-2.89474 -0.57896,-4.34211 2.48948,-7.64211 -1.53421,-17.16579 -6.94737,-21.71054 -2.66316,-2.48947 -6.94737,-4.74737 -11.72369,-2.25789 -1.1579,0.57894 -2.6921,0.81052 -4.05263,0.20263 -1.33158,-0.63685 -2.31579,-1.88158 -2.69211,-3.12632 -4.22632,-17.36843 -15.19737,-25.4158 -34.04212,-25.4158 -1.38948,0 -37.74739,0.86842 -37.74739,48.57371 0,2.69211 -2.11315,4.74737 -4.63158,4.74737 -31.92896,0 -32.50791,26.05264 -32.50791,27.0658 0,15.48685 11.52107,27.6737 27.1237,27.6737 z m 1.91052,49.38425 c 0,-6.36843 -5.21053,-11.78159 -11.75264,-11.78159 -6.36842,0 -11.72368,5.41316 -11.72368,11.81054 0,6.36842 5.38421,11.78157 11.72368,11.78157 6.54211,0 11.75264,-5.38421 11.75264,-11.78157 z m -119.69742,11.78158 c 6.5421,0 11.72368,-5.38421 11.72368,-11.78158 0,-6.36843 -5.21053,-11.78159 -11.72368,-11.78159 -6.36843,0 -11.75264,5.41316 -11.75264,11.81054 0,6.36842 5.41316,11.78157 11.75264,11.78157 z m 65.79739,7.03422 c 0,-6.65791 -5.21052,-11.78159 -11.72369,-11.78159 -6.51316,0 -11.72368,5.21052 -11.72368,11.81053 0,6.36843 5.21052,11.78159 11.75263,11.78159 6.57105,0 11.78159,-5.38421 11.78159,-11.78159 z"
     stroke="#000000"
     stroke-opacity="0"
     fill="#ffffff"
     id="path6"
     style="fill:#8c57ea;fill-opacity:1;stroke-width:2.89473" /></svg>
